SplineFontDB: 3.0
FontName: WalbaumStM
FullName: Sorts Mill Walbaum
FamilyName: Sorts Mill Walbaum
Weight: Regular
Copyright: Copyright (C) 2010 Barry Schwartz
UComments: "2010-2-2: Created." 
Version: 001.000
ItalicAngle: 0
UnderlinePosition: -100
UnderlineWidth: 50
Ascent: 700
Descent: 300
Descent: 300
LayerCount: 3
Layer: 0 0 "Back"  1
Layer: 1 0 "Fore"  0
Layer: 2 0 "backup"  0
NeedsXUIDChange: 1
XUID: [1021 658 797806517 10056847]
FSType: 0
OS2Version: 0
OS2_WeightWidthSlopeOnly: 0
OS2_UseTypoMetrics: 1
CreationTime: 1265176368
ModificationTime: 1265943302
OS2TypoAscent: 0
OS2TypoAOffset: 1
OS2TypoDescent: 0
OS2TypoDOffset: 1
OS2TypoLinegap: 90
OS2WinAscent: 0
OS2WinAOffset: 1
OS2WinDescent: 0
OS2WinDOffset: 1
HheadAscent: 0
HheadAOffset: 1
HheadDescent: 0
HheadDOffset: 1
OS2Vendor: 'PfEd'
MarkAttachClasses: 1
DEI: 91125
LangName: 1033 
Encoding: UnicodeBmp
UnicodeInterp: none
NameList: Adobe Glyph List
DisplaySize: -72
AntiAlias: 1
FitToEm: 1
WinInfo: 65512 8 6
BeginPrivate: 9
BlueValues 31 [-20 0 402 414 612 622 663 683]
OtherBlues 11 [-265 -250]
BlueFuzz 1 0
BlueScale 4 0.05
BlueShift 1 7
StdHW 4 [34]
StemSnapH 13 [34 38 40 44]
StdVW 4 [87]
StemSnapV 8 [87 107]
EndPrivate
BeginChars: 65557 121

StartChar: a
Encoding: 97 97 0
Width: 426
VWidth: 0
Flags: W
HStem: -12 43<133.126 225.329> -5 35<357.633 422.948> 202 28<176.616 266> 383 31<151.355 244.417>
VStem: 31 85<47.2578 171.745> 45 89<277.06 370.734> 266 87<62.5022 202 230 364.568> 274 79<30.6293 63>
LayerCount: 3
Fore
SplineSet
178 31 m 0xba
 222 31 266 64 266 131 c 2
 266 202 l 1
 223 200 155 189 136 170 c 0
 119 153 116 139 116 111 c 0
 116 56 144 31 178 31 c 0xba
31 99 m 0
 31 207 100 216 266 230 c 1
 266 280 l 2
 266 328 259 383 208 383 c 0
 170 383 134 377 134 316 c 0
 134 287 134 271 95 271 c 0
 62 271 45 287 45 325 c 0
 45 386 117 414 209 414 c 0
 299 414 353 373 353 290 c 2xb6
 353 58 l 2
 353 34 354 30 375 30 c 0
 381 30 410 32 410 32 c 2
 415 32 423 29 423 15 c 0
 423 1 420 -5 394 -5 c 0
 269 -5 279 3 274 63 c 1x71
 254 23 208 -12 159 -12 c 0
 114 -12 31 -3 31 99 c 0
EndSplineSet
Validated: 1
EndChar

StartChar: b
Encoding: 98 98 1
Width: 532
VWidth: 0
Flags: W
HStem: -12 41<238.429 356.719> 379 35<235.116 341.005> 624 44<8.01181 95>
VStem: 92 80<-10.6875 72> 95 89<365 628> 98 81<85.242 333.516> 400 94<94.6791 313.804>
LayerCount: 3
Fore
SplineSet
95 628 m 1xea
 32 625 31 624 23 624 c 0
 12 624 8 629 8 647 c 0
 8 663 11 668 25 668 c 0
 174 668 154 667 187 667 c 1
 184 365 l 1xea
 184 365 218 414 312 414 c 0
 434 414 494 319 494 212 c 0
 494 98 444 -12 324 -12 c 0
 212 -12 172 72 172 72 c 1
 172 -12 167 -12 154 -12 c 0
 100 -12 92 -9 92 3 c 0xf2
 92 4 98 128 98 171 c 0xe6
 98 217 97 263 95 628 c 1xea
179 275 m 2xe6
 179 162 l 2
 179 71 246 29 299 29 c 0
 364 29 400 77 400 208 c 0
 400 316 354 379 293 379 c 0
 243 379 179 338 179 275 c 2xe6
EndSplineSet
Validated: 1
EndChar

StartChar: c
Encoding: 99 99 2
Width: 445
VWidth: 0
Flags: W
HStem: -12 43<176.353 323.248> 380 34<181.286 306.283>
VStem: 28 97<89.6041 297.753> 326 76<256.279 356.81> 351 46<58.0322 115.858>
LayerCount: 3
Fore
SplineSet
326 322 m 0xf0
 326 368 283 380 243 380 c 0
 176 380 125 336 125 221 c 0
 125 65 172 31 255 31 c 0
 314 31 340 64 351 87 c 0
 362 109 362 116 376 116 c 0
 393 116 397 108 397 101 c 0xe8
 397 83 362 -12 238 -12 c 0
 99 -12 28 71 28 190 c 0
 28 326 112 414 237 414 c 0
 382 414 402 326 402 298 c 0
 402 281 394 252 362 252 c 0
 332 252 324 272 324 291 c 0
 324 301 326 312 326 322 c 0xf0
EndSplineSet
Validated: 1
EndChar

StartChar: d
Encoding: 100 100 3
Width: 505
VWidth: 0
Flags: W
HStem: -12 45<177.211 290.99> -3 34<413 501.94> 370 44<167.996 292.972> 624 44<237.015 324>
VStem: 27 95<97.2241 308.729> 324 96<405.04 628> 332 79<62.1687 342.27 370 440.05> 339 74<31 57>
LayerCount: 3
Fore
SplineSet
420 667 m 1xbc
 415 564 411 526 411 199 c 0xba
 411 69 413 31 413 31 c 1
 486 34 l 2
 499 34 502 30 502 17 c 0
 502 -1 497 -3 483 -3 c 2
 340 -5 l 1
 339 57 l 1x79
 316 20 273 -12 211 -12 c 0
 120 -12 27 52 27 198 c 0
 27 368 139 414 212 414 c 0
 279 414 327 370 327 370 c 1
 324 628 l 1
 256 624 l 2
 242 624 237 627 237 647 c 0
 237 663 240 668 254 668 c 0
 403 668 387 667 420 667 c 1xbc
241 33 m 0
 314 33 332 91 332 119 c 2
 332 280 l 2
 332 338 296 370 230 370 c 0
 147 370 122 292 122 208 c 0
 122 117 154 33 241 33 c 0
EndSplineSet
Validated: 1
EndChar

StartChar: e
Encoding: 101 101 4
Width: 445
VWidth: 0
Flags: W
HStem: -12 43<177.141 322.711> 227 35<134 314> 379 35<169.405 286.103>
VStem: 28 96<96.9833 267.709> 314 91<265 332.316> 357 45<62.8702 115.792>
LayerCount: 3
Fore
SplineSet
402 99 m 0xf4
 402 85 367 -12 240 -12 c 0
 98 -12 28 80 28 200 c 0
 28 336 112 414 237 414 c 0
 382 414 405 286 405 258 c 0xf8
 405 233 396 234 361 231 c 0
 331 228 295 227 261 227 c 0
 193 227 131 231 131 231 c 2
 130 231 124 229 124 207 c 0
 124 105 148 31 250 31 c 0
 314 31 344 65 357 95 c 0
 362 108 364 116 376 116 c 0
 386 116 402 113 402 99 c 0xf4
314 265 m 1
 314 331 305 379 224 379 c 0
 140 379 142 311 134 266 c 1
 134 266 173 262 208 262 c 0
 259 262 313 265 314 265 c 1
EndSplineSet
Validated: 1
EndChar

StartChar: f
Encoding: 102 102 5
Width: 351
VWidth: 0
Flags: W
HStem: 0 33<34.0037 117 204 301.996> 362 40<29.0148 116 205 314.985> 644 34<229.451 305.258>
VStem: 116 88<33 362 402 605.8> 310 86<549.906 640.939>
LayerCount: 3
Fore
SplineSet
117 33 m 1
 116 362 l 1
 48 360 l 2
 34 360 29 363 29 383 c 0
 29 399 32 404 46 404 c 0
 48 404 79 403 116 402 c 1
 117 426 118 451 118 473 c 0
 119 592 134 678 277 678 c 0
 355 678 396 642 396 591 c 0
 396 557 373 544 350 544 c 0
 314 544 308 560 308 576 c 0
 308 589 310 579 310 608 c 0
 310 633 297 644 265 644 c 0
 202 644 210 563 205 402 c 1
 294 404 l 2
 311 404 315 400 315 383 c 0
 315 363 310 360 296 360 c 2
 204 362 l 1
 204 33 l 1
 281 34 l 2
 298 34 302 32 302 17 c 0
 302 -1 297 -3 283 -3 c 2
 283 -3 210 0 164 0 c 24
 121 0 53 -3 53 -3 c 2
 39 -3 34 -1 34 17 c 0
 34 32 38 34 55 34 c 2
 117 33 l 1
EndSplineSet
Validated: 1
EndChar

StartChar: g
Encoding: 103 103 6
Width: 511
VWidth: 0
Flags: MW
HStem: -262 34<132.856 295.242> 118 29<191.39 269.602> 385 29<187.981 267.685>
VStem: 21 44<55.8665 129.592> 22 54<-182.355 -71.8837> 75 83<180.258 346.222> 299 80<178.735 353.187> 364 58<-175.377 -65.41>
LayerCount: 3
Fore
SplineSet
108 -43 m 1xe9
 108 -43 76 -67 76 -119 c 0
 76 -175 119 -228 209 -228 c 0
 325 -228 364 -165 364 -119 c 0
 364 -80 358 -47 253 -47 c 2
 182 -47 l 2
 163 -47 108 -43 108 -43 c 1xe9
458.647849788 297.975436546 m 0
 425.390547205 297.975436546 423 321.332150947 423 329 c 0
 423 347 416 355 408 355 c 0
 395 355 379 337 379 314 c 0
 379 304 383 299 383 264 c 0
 383 161 301 118 227 118 c 0
 159 118 121 148 121 148 c 1
 104 145 65 129 65 90 c 0xf6
 65 52 94 50 125 50 c 2
 241 50 l 2
 344 50 422 34 422 -94 c 0
 422 -214 318 -262 212 -262 c 0
 73 -262 22 -208 22 -134 c 0xe9
 22 -67 86 -36 86 -36 c 1
 86 -36 21 -4 21 75 c 0
 21 134 86 164 104 170 c 1
 104 170 75 202 75 271 c 0xf4
 75 340 128 414 227 414 c 0
 323 414 362 348 362 348 c 1
 373 364 397 390 435 390 c 0
 470 390 492 369 492 338 c 0
 492 303.387628329 472.582105365 297.975436546 458.647849788 297.975436546 c 0
299 260 m 0
 299 313 292 385 227 385 c 0
 168 385 158 319 158 270 c 0
 158 224 168 147 230 147 c 0
 292 147 299 210 299 260 c 0
EndSplineSet
Validated: 1
Layer: 2
SplineSet
108 -43 m 5xe980
 108 -43 76 -67 76 -119 c 4
 76 -175 119 -228 209 -228 c 4
 325 -228 364 -165 364 -119 c 4
 364 -80 358 -47 253 -47 c 6
 182 -47 l 6
 163 -47 108 -43 108 -43 c 5xe980
379 314 m 4xf680
 379 304 383 299 383 264 c 4
 383 161 301 118 227 118 c 4
 159 118 121 148 121 148 c 5
 104 145 65 129 65 90 c 4xf680
 65 52 94 50 125 50 c 6
 241 50 l 6
 344 50 422 34 422 -94 c 4
 422 -214 318 -262 212 -262 c 4
 73 -262 22 -208 22 -134 c 4xe980
 22 -67 86 -36 86 -36 c 5
 86 -36 21 -4 21 75 c 4
 21 134 86 164 104 170 c 5
 104 170 75 202 75 271 c 4
 75 340 128 414 227 414 c 4
 323 414 362 348 362 348 c 5
 373 364 397 390 435 390 c 4
 470 390 492 369 492 338 c 4
 492 303 471 298 457 298 c 4
 425 298 423 312 423 329 c 4
 423 347 416 355 408 355 c 4
 395 355 379 337 379 314 c 4xf680
299 260 m 4
 299 313 292 385 227 385 c 4
 168 385 158 319 158 270 c 4
 158 224 168 147 230 147 c 4
 292 147 299 210 299 260 c 4
EndSplineSet
EndChar

StartChar: h
Encoding: 104 104 7
Width: 541
VWidth: 0
Flags: W
HStem: -3 37<12.0273 91 178 264.973 293.027 377 464 535.973> 373 41<246.478 363.754> 624 44<10.0118 97>
VStem: 91 87<33 317.242 322 353.364> 97 92<524.941 628> 377 87<33 361.571>
LayerCount: 3
Fore
SplineSet
307 373 m 0xec
 248 373 178 320 178 259 c 2
 178 33 l 1
 244 34 l 2
 261 34 265 32 265 17 c 0
 265 -1 260 -3 246 -3 c 2
 246 -3 180 0 137 0 c 0
 96 0 31 -3 31 -3 c 2
 17 -3 12 -1 12 17 c 0
 12 32 16 34 33 34 c 2
 91 33 l 1
 91 232 l 2xf4
 91 390 97 628 97 628 c 1
 34 625 33 624 25 624 c 0
 14 624 10 629 10 647 c 0
 10 663 13 668 27 668 c 0
 176 668 156 667 189 667 c 1
 172 322 l 1
 172 322 213 414 337 414 c 0
 436 414 464 368 464 292 c 2
 464 33 l 1
 515 34 l 2
 532 34 536 32 536 17 c 0
 536 -1 531 -3 517 -3 c 2
 517 -3 460 0 423 0 c 0
 380 0 312 -3 312 -3 c 2
 298 -3 293 -1 293 17 c 0
 293 32 297 34 314 34 c 2
 377 33 l 1
 377 284 l 2
 377 351 367 373 307 373 c 0xec
EndSplineSet
Validated: 1
EndChar

StartChar: i
Encoding: 105 105 8
Width: 289
VWidth: 0
Flags: W
HStem: 0 33<25.0037 109 196 272.996> 363 40<24.0118 106> 558 100<111.217 192.565>
VStem: 102 99<566.701 649.245> 109 87<33 367>
LayerCount: 3
Fore
SplineSet
196 33 m 1xe8
 252 34 l 2
 269 34 273 32 273 17 c 0
 273 -1 268 -3 254 -3 c 2
 254 -3 198 0 155 0 c 0
 110 0 44 -3 44 -3 c 2
 30 -3 25 -1 25 17 c 0
 25 32 29 34 46 34 c 2
 109 33 l 1
 109 259 l 6
 109 292 106 367 106 367 c 5
 43 364 47 363 39 363 c 4
 28 363 24 364 24 382 c 4
 24 398 27 403 41 403 c 4
 190 403 200 402 200 402 c 5
 200 402 196 298 196 257 c 6
 196 33 l 1xe8
102 608 m 0xf0
 102 635 125 658 149 658 c 0
 167 658 201 648 201 607 c 0
 201 570 177 558 151 558 c 0
 124 558 102 581 102 608 c 0xf0
EndSplineSet
Validated: 1
EndChar

StartChar: j
Encoding: 106 106 9
Width: 289
VWidth: 0
Flags: W
HStem: -255 21G<28.5 36> 363 40<24.0118 126> 558 100<111.217 192.565>
VStem: 102 99<566.701 649.245> 129 87<-129.757 367>
LayerCount: 3
Fore
SplineSet
33 -255 m 0xe8
 24 -255 19 -239 19 -233 c 0
 19 -222 47 -218 79 -195 c 0
 128 -160 129 -91 129 20 c 2
 129 259 l 2
 129 292 126 367 126 367 c 1
 63 364 47 363 39 363 c 0
 28 363 24 364 24 382 c 0
 24 398 27 403 41 403 c 0
 190 403 220 402 220 402 c 1
 220 402 216 298 216 257 c 2
 216 15 l 2
 216 -190 137 -213 57 -247 c 0
 45 -252 39 -255 33 -255 c 0xe8
102 608 m 0xf0
 102 635 125 658 149 658 c 0
 167 658 201 648 201 607 c 0
 201 570 177 558 151 558 c 0
 124 558 102 581 102 608 c 0xf0
EndSplineSet
Validated: 1
EndChar

StartChar: k
Encoding: 107 107 10
Width: 536
VWidth: 0
Flags: HMW
HStem: 0 34<22.0273 106 193 259.973 289.027 346 453 529.973> 190 36<193 241.812> 368 34<242.004 324 376 474.996> 624 44<16.0118 103>
VStem: 106 87<33 190 226 628>
DStem2: 305 210 247 167 0.641462 -0.767154<-34.1935 162.086> 255 263 303 269 0.545544 0.838082<-4.38483 126.479>
LayerCount: 3
Fore
SplineSet
324 369 m 1
 263 367 l 2
 246 367 242 370 242 385 c 0
 242 403 247 404 261 404 c 2
 261 404 324 402 365 402 c 24
 400 402 456 404 456 404 c 2
 470 404 475 403 475 385 c 0
 475 370 471 367 454 367 c 2
 376 369 l 1
 303 269 l 2
 290 252 285 243 285 238 c 0
 285 235 293 224 305 210 c 2
 453 33 l 1
 509 34 l 2
 526 34 530 32 530 17 c 0
 530 -1 525 -3 511 -3 c 2
 511 -3 445 0 402 0 c 0
 357 0 308 -3 308 -3 c 2
 294 -3 289 -1 289 17 c 0
 289 32 293 34 310 34 c 2
 346 33 l 1
 247 167 l 2
 232 188 230 190 215 190 c 2
 193 190 l 1
 193 33 l 1
 239 34 l 2
 256 34 260 32 260 17 c 0
 260 -1 255 -3 241 -3 c 2
 241 -3 195 0 152 0 c 0
 107 0 41 -3 41 -3 c 2
 27 -3 22 -1 22 17 c 0
 22 32 26 34 43 34 c 2
 106 33 l 1
 106 297 l 2
 106 594 103 628 103 628 c 1
 40 625 39 624 31 624 c 0
 20 624 16 629 16 647 c 0
 16 663 19 668 33 668 c 0
 182 668 162 667 195 667 c 1
 193 527 193 587 193 478 c 2
 193 226 l 1
 212 226 l 2
 230 226 232 228 255 263 c 2
 324 369 l 1
EndSplineSet
Validated: 1
EndChar

StartChar: l
Encoding: 108 108 11
Width: 286
VWidth: 0
Flags: W
HStem: 0 33<12.0037 101 188 274.996> 624 44<11.0118 98>
VStem: 101 87<33 628>
LayerCount: 3
Fore
SplineSet
188 33 m 1
 254 34 l 2
 271 34 275 32 275 17 c 0
 275 -1 270 -3 256 -3 c 2
 256 -3 190 0 147 0 c 24
 102 0 31 -3 31 -3 c 2
 17 -3 12 -1 12 17 c 0
 12 32 16 34 33 34 c 2
 101 33 l 1
 101 297 l 2
 101 594 98 628 98 628 c 1
 35 625 34 624 26 624 c 0
 15 624 11 629 11 647 c 0
 11 663 14 668 28 668 c 0
 177 668 159 667 192 667 c 1
 188 431 188 560 188 275 c 2
 188 33 l 1
EndSplineSet
Validated: 1
EndChar

StartChar: m
Encoding: 109 109 12
Width: 806
VWidth: 0
Flags: W
HStem: -3 37<19.0273 93 180 251.973 278.027 357 444 515.973 542.027 621 708 779.973> 363 40<8.01181 90> 373 41<252.241 347.131 515.95 610.481>
VStem: 93 87<33 306.936 310 367> 357 87<33 306.936 321 364.213> 621 87<33 364>
CounterMasks: 1 1c
LayerCount: 3
Fore
SplineSet
180 33 m 1xbc
 231 34 l 2
 248 34 252 32 252 17 c 0
 252 -1 247 -3 233 -3 c 2
 233 -3 182 0 139 0 c 0
 94 0 38 -3 38 -3 c 2
 24 -3 19 -1 19 17 c 0
 19 32 23 34 40 34 c 2
 93 33 l 1
 93 259 l 2
 93 292 90 367 90 367 c 1
 27 364 31 363 23 363 c 0
 12 363 8 364 8 382 c 0
 8 398 11 403 25 403 c 0xdc
 174 403 179 402 179 402 c 1
 179 402 175 344 174 310 c 1
 182 334 235 414 327 414 c 0
 414 414 438 379 443 321 c 1
 460 352 510 414 591 414 c 0
 692 414 708 368 708 292 c 2
 708 33 l 1
 759 34 l 2
 776 34 780 32 780 17 c 0
 780 -1 775 -3 761 -3 c 2
 761 -3 704 0 667 0 c 0
 624 0 561 -3 561 -3 c 2
 547 -3 542 -1 542 17 c 0
 542 32 546 34 563 34 c 2
 621 33 l 1
 621 284 l 2
 621 343 621 373 561 373 c 0
 504 373 444 296 444 241 c 2
 444 33 l 1
 495 34 l 2
 512 34 516 32 516 17 c 0
 516 -1 511 -3 497 -3 c 2
 497 -3 440 0 403 0 c 0
 360 0 297 -3 297 -3 c 2
 283 -3 278 -1 278 17 c 0
 278 32 282 34 299 34 c 2
 357 33 l 1
 357 284 l 2
 357 343 357 373 297 373 c 0
 240 373 180 296 180 241 c 2
 180 33 l 1xbc
EndSplineSet
Validated: 1
EndChar

StartChar: n
Encoding: 110 110 13
Width: 527
VWidth: 0
Flags: HMW
HStem: 0 34<19.0273 93 180 251.973 278.027 357 444 515.973> 363 40<8.01181 90> 373 40<252.241 346.481>
VStem: 93 87<33 306.936 310 367> 357 87<33 363.684>
LayerCount: 3
Fore
SplineSet
180 33 m 1xb8
 231 34 l 2
 248 34 252 32 252 17 c 0
 252 -1 247 -3 233 -3 c 2
 233 -3 182 0 139 0 c 0
 94 0 38 -3 38 -3 c 2
 24 -3 19 -1 19 17 c 0
 19 32 23 34 40 34 c 2
 93 33 l 1
 93 259 l 2
 93 292 90 367 90 367 c 1
 27 364 31 363 23 363 c 0
 12 363 8 364 8 382 c 0
 8 398 11 403 25 403 c 0xd8
 174 403 179 402 179 402 c 1
 179 402 175 342 174 308 c 1
 182 332 235 414 327 414 c 0
 428 414 444 368 444 292 c 2
 444 33 l 1
 495 34 l 2
 512 34 516 32 516 17 c 0
 516 -1 511 -3 497 -3 c 2
 497 -3 440 0 403 0 c 0
 360 0 297 -3 297 -3 c 2
 283 -3 278 -1 278 17 c 0
 278 32 282 34 299 34 c 2
 357 33 l 1
 357 284 l 2
 357 343 357 373 297 373 c 0
 240 373 180 296 180 241 c 2
 180 33 l 1xb8
EndSplineSet
Validated: 1
EndChar

StartChar: o
Encoding: 111 111 14
Width: 468
VWidth: 0
Flags: W
HStem: -12 37<167.415 295.066> 377 37<161.084 291.876>
VStem: 18 95<99.2837 298.327> 343 95<97.2763 302.887>
LayerCount: 3
Fore
SplineSet
234 414 m 0
 350 414 438 334 438 196 c 0
 438 54 332 -12 225 -12 c 0
 122 -12 18 52 18 204 c 0
 18 310 93 414 234 414 c 0
228 377 m 0
 130 377 113 305 113 207 c 0
 113 97 135 25 241 25 c 0
 328 25 343 112 343 201 c 0
 343 290 332 377 228 377 c 0
EndSplineSet
Validated: 1
EndChar

StartChar: p
Encoding: 112 112 15
Width: 532
VWidth: 0
Flags: W
HStem: -250 33<9.00368 93 180 281.996> -12 43<231.965 358.789> 379 35<8.07467 90 242.842 349.858>
VStem: 93 87<-217 58 76.8852 330.611 344 378> 400 94<91.0485 319.083>
LayerCount: 3
Fore
SplineSet
176 269 m 2
 176 164 l 2
 176 73 236 31 294 31 c 0
 366 31 400 77 400 208 c 0
 400 316 364 379 303 379 c 0
 247 379 176 330 176 269 c 2
  Spiro
    176 269 [
    176 164 ]
    193.671 89.1332 o
    237.682 45.2305 o
    294 31 o
    353.434 47.7428 o
    388.542 103.968 o
    400 208 o
    388.43 300.257 o
    355.216 358.707 o
    303 379 o
    245.242 364.066 o
    196.444 324.581 o
    0 0 z
  EndSpiro
322 414 m 0
 444 414 494 319 494 212 c 0
 494 98 448 -12 319 -12 c 0
 231 -12 194 37 180 58 c 1
 180 -217 l 1
 261 -216 l 2
 278 -216 282 -218 282 -233 c 0
 282 -251 277 -253 263 -253 c 2
 263 -253 182 -250 139 -250 c 0
 94 -250 28 -253 28 -253 c 2
 14 -253 9 -251 9 -233 c 0
 9 -218 13 -216 30 -216 c 2
 93 -217 l 1
 93 259 l 2
 93 292 90 378 90 378 c 1
 27 375 31 374 23 374 c 0
 12 374 8 375 8 393 c 0
 8 409 11 414 25 414 c 0
 174 414 179 413 179 413 c 1
 179 413 178 375 177 344 c 1
 184 353 228 414 322 414 c 0
  Spiro
    322 414 o
    420.738 385.461 o
    476.554 311.836 o
    494 212 o
    477.331 103.359 o
    421.626 20.6792 o
    319 -12 o
    247.02 1.45738 o
    202.671 30.5496 o
    180 58 v
    180 -217 v
    261 -216 ]
    273.991 -217.072 o
    280.337 -221.933 o
    282 -233 o
    280.189 -246.176 o
    274.14 -251.818 o
    263 -253 v
    240.448 -252.224 o
    190.204 -250.776 o
    139 -250 o
    90.2716 -250.776 o
    46.7435 -252.224 o
    28 -253 v
    16.8603 -251.818 o
    10.811 -246.176 o
    9 -233 o
    10.663 -221.933 o
    17.0093 -217.072 o
    30 -216 [
    93 -217 v
    93 259 ]
    92.2236 304.466 o
    90.7764 354.523 o
    90 378 v
    46.4345 375.631 o
    29.9172 374.37 o
    23 374 o
    14.2289 374.923 o
    9.44145 380.083 o
    8 393 o
    9.29341 405.546 o
    14.3779 412.115 o
    25 414 o
    131.08 413.741 o
    172.204 413.259 o
    179 413 v
    178.704 402.02 o
    177.962 375.636 o
    177 344 v
    196.782 366.117 o
    244.247 397.88 o
    0 0 z
  EndSpiro
EndSplineSet
Validated: 1
Layer: 2
SplineSet
299 377 m 0xdc
 239 377 176 324 176 267 c 2
 176 164 l 2
 176 73 236 31 294 31 c 0
 366 31 400 77 400 208 c 0
 400 350 342 377 299 377 c 0xdc
322 414 m 0
 446 414 494 319 494 212 c 0
 494 98 448 -12 319 -12 c 0
 231 -12 194 37 180 58 c 1
 180 -217 l 1
 261 -216 l 2
 278 -216 282 -218 282 -233 c 0
 282 -251 277 -253 263 -253 c 2
 263 -253 182 -250 139 -250 c 0
 94 -250 28 -253 28 -253 c 2
 14 -253 9 -251 9 -233 c 0
 9 -218 13 -216 30 -216 c 2
 93 -217 l 1
 93 259 l 2
 93 292 90 367 90 367 c 1
 27 364 31 363 23 363 c 0
 12 363 8 364 8 382 c 0
 8 398 11 403 25 403 c 0xec
 156 403 173 402 173 402 c 1
 173 337 l 1
 180 349 228 414 322 414 c 0
176 269 m 2
 176 164 l 2
 176 73 236 31 294 31 c 0
 366 31 400 77 400 208 c 0
 400 316 364 379 303 379 c 0
 247 379 176 330 176 269 c 2
  Spiro
    176 269 [
    176 164 ]
    193.671 89.1332 o
    237.682 45.2305 o
    294 31 o
    353.434 47.7428 o
    388.542 103.968 o
    400 208 o
    388.43 300.257 o
    355.216 358.707 o
    303 379 o
    245.242 364.066 o
    196.444 324.581 o
    0 0 z
  EndSpiro
322 414 m 0
 444 414 494 319 494 212 c 0
 494 98 448 -12 319 -12 c 0
 231 -12 194 37 180 58 c 1
 180 -217 l 1
 261 -216 l 2
 278 -216 282 -218 282 -233 c 0
 282 -251 277 -253 263 -253 c 2
 263 -253 182 -250 139 -250 c 0
 94 -250 28 -253 28 -253 c 2
 14 -253 9 -251 9 -233 c 0
 9 -218 13 -216 30 -216 c 2
 93 -217 l 1
 93 259 l 2
 93 292 90 378 90 378 c 1
 27 375 31 374 23 374 c 0
 12 374 8 375 8 393 c 0
 8 409 11 414 25 414 c 0
 174 414 179 413 179 413 c 1
 179 413 178 375 177 344 c 1
 184 353 228 414 322 414 c 0
  Spiro
    322 414 o
    420.738 385.461 o
    476.554 311.836 o
    494 212 o
    477.331 103.359 o
    421.626 20.6792 o
    319 -12 o
    247.02 1.45738 o
    202.671 30.5496 o
    180 58 v
    180 -217 v
    261 -216 ]
    273.991 -217.072 o
    280.337 -221.933 o
    282 -233 o
    280.189 -246.176 o
    274.14 -251.818 o
    263 -253 v
    240.448 -252.224 o
    190.204 -250.776 o
    139 -250 o
    90.2716 -250.776 o
    46.7435 -252.224 o
    28 -253 v
    16.8603 -251.818 o
    10.811 -246.176 o
    9 -233 o
    10.663 -221.933 o
    17.0093 -217.072 o
    30 -216 [
    93 -217 v
    93 259 ]
    92.2236 304.466 o
    90.7764 354.523 o
    90 378 v
    46.4345 375.631 o
    29.9172 374.37 o
    23 374 o
    14.2289 374.923 o
    9.44145 380.083 o
    8 393 o
    9.29341 405.546 o
    14.3779 412.115 o
    25 414 o
    131.08 413.741 o
    172.204 413.259 o
    179 413 v
    178.704 402.02 o
    177.962 375.636 o
    177 344 v
    196.782 366.117 o
    244.247 397.88 o
    0 0 z
  EndSpiro
EndSplineSet
EndChar

StartChar: q
Encoding: 113 113 16
Width: 505
VWidth: 0
Flags: W
HStem: -250 33<244.004 338 425 506.996> -12 41<174.89 288.898> 381 33<172.919 279.985>
VStem: 23 95<93.962 309.304> 338 87<-217 48 66.0717 329.882> 351 74<332 410.446>
LayerCount: 3
Fore
SplineSet
118 208 m 0xf0
 118 117 148 29 235 29 c 0
 287 29 340 69 340 124 c 2
 340 262 l 2
 340 320 290 381 224 381 c 0
 141 381 118 292 118 208 c 0xf0
338 -217 m 1xf8
 338 48 l 1xf8
 308 4 245 -12 205 -12 c 0
 114 -12 23 52 23 198 c 0
 23 368 133 414 206 414 c 0
 319 414 351 332 351 332 c 1xf4
 351 349 352 365 352 382 c 0
 352 408 356 411 390 411 c 0
 421.476884156 411 428.118655177 406.743079512 428.118655177 382.280332826 c 0
 428.118655177 372.852299543 425 325 425 288 c 18
 425 -217 l 1
 486 -216 l 2
 503 -216 507 -218 507 -233 c 0
 507 -251 502 -253 488 -253 c 2
 488 -253 427 -250 384 -250 c 0
 339 -250 263 -253 263 -253 c 2
 249 -253 244 -251 244 -233 c 0
 244 -218 248 -216 265 -216 c 2
 338 -217 l 1xf8
EndSplineSet
Validated: 1
EndChar

StartChar: r
Encoding: 114 114 17
Width: 432
VWidth: 0
Flags: W
HStem: 0 33<25.0037 109 196 292.996> 363 40<24.0118 106> 368 43<277.218 324>
VStem: 109 87<33 274.176 296 367> 314 100<295.208 367.545>
LayerCount: 3
Fore
SplineSet
192 296 m 1xd8
 225 350 264 411 342 411 c 0
 398 411 414 365 414 340 c 0
 414 313 396 286 364 286 c 0
 339 286 314 300 314 328 c 0
 314 348 324 368 324 368 c 1xb8
 301 368 260 344 224 285 c 0
 208 258 196 245 196 151 c 2
 196 33 l 1
 272 34 l 2
 289 34 293 32 293 17 c 0
 293 -1 288 -3 274 -3 c 2
 274 -3 198 0 155 0 c 0
 110 0 44 -3 44 -3 c 2
 30 -3 25 -1 25 17 c 0
 25 32 29 34 46 34 c 2
 109 33 l 1
 109 259 l 2
 109 292 106 367 106 367 c 1
 43 364 47 363 39 363 c 0
 28 363 24 364 24 382 c 0
 24 398 27 403 41 403 c 0
 190 403 200 402 200 402 c 1
 200 402 193 344 192 296 c 1xd8
EndSplineSet
Validated: 1
Layer: 2
SplineSet
192 296 m 5xd8
 225 350 264 411 342 411 c 4
 398 411 414 365 414 340 c 4
 414 313 396 287 364 287 c 4
 339 287 313 306 313 334 c 4
 313 354 324 368 324 368 c 5xb8
 301 368 260 344 224 285 c 4
 208 258 196 245 196 151 c 6
 196 33 l 5
 272 34 l 6
 289 34 293 32 293 17 c 4
 293 -1 288 -3 274 -3 c 6
 274 -3 198 0 155 0 c 4
 110 0 44 -3 44 -3 c 6
 30 -3 25 -1 25 17 c 4
 25 32 29 34 46 34 c 6
 109 33 l 5
 109 259 l 6
 109 292 106 367 106 367 c 5
 43 364 47 363 39 363 c 4
 28 363 24 364 24 382 c 4
 24 398 27 403 41 403 c 4
 190 403 200 402 200 402 c 5
 200 402 193 344 192 296 c 5xd8
EndSplineSet
EndChar

StartChar: s
Encoding: 115 115 18
Width: 351
VWidth: 0
Flags: W
HStem: -12 42<125.014 247.751> 379 35<122.983 222.245>
VStem: 41 39<74.8979 149.493> 43 67<285.088 359.827> 265 57<49.4895 135.154>
LayerCount: 3
Fore
SplineSet
43 291 m 0xd8
 43 340 75 414 186 414 c 0
 215 414 245 409 283 397 c 0
 295 393 297 391 298 379 c 0
 299 353 302 303 302 301 c 0
 303 285 297 283 292 283 c 0
 278 283 284 284 266 315 c 0
 240 359 203 379 170 379 c 0
 137 379 110 363 110 329 c 0xd8
 110 227 322 278 322 121 c 0
 322 35 247 -12 163 -12 c 0
 124 -12 84 -3 48 17 c 0
 37 23 37 25 37 36 c 0
 37 44 41 70 41 121 c 0
 41 148 42 150 54 150 c 0
 71 150 65 146 80 108 c 0xe8
 102 54 148 30 189 30 c 0
 230 30 265 51 265 92 c 0
 265 190 43 156 43 291 c 0xd8
EndSplineSet
Validated: 1
Layer: 2
SplineSet
43 298 m 0
 43 347 66 414 186 414 c 0
 215 414 247 413 285 401 c 0
 297 397 296 395 297 383 c 0
 298 357 301 307 301 305 c 0
 302 289 299 287 294 287 c 0
 280 287 286 288 268 319 c 0
 242 363 203 379 170 379 c 0
 137 379 110 359 110 325 c 0
 110 223 322 284 322 119 c 0
 322 33 247 -12 163 -12 c 0
 124 -12 84 -7 48 13 c 0
 37 19 37 21 37 32 c 0
 37 39 39 71 41 104 c 0
 43 141 40 146 54 146 c 0
 71 146 65 142 80 104 c 0
 102 50 148 30 189 30 c 0
 230 30 265 53 265 94 c 0
 265 194 43 150 43 298 c 0
43 291 m 4
 43 340 75 414 186 414 c 4
 215 414 247 409 285 397 c 4
 297 393 296 391 297 379 c 4
 298 353 301 303 301 301 c 4
 302 285 299 283 294 283 c 4
 280 283 286 284 268 315 c 4
 242 359 203 379 170 379 c 4
 137 379 110 359 110 325 c 4
 110 223 322 284 322 119 c 4
 322 33 247 -12 163 -12 c 4
 124 -12 84 -3 48 17 c 4
 37 23 37 25 37 36 c 4
 37 43 40 75 41 108 c 4
 42 141 40 150 54 150 c 4
 71 150 65 146 80 108 c 4
 102 54 148 30 189 30 c 4
 230 30 265 53 265 94 c 4
 265 192 43 141 43 291 c 4
EndSplineSet
EndChar

StartChar: t
Encoding: 116 116 19
Width: 374
VWidth: 0
Flags: W
HStem: -12 39<200.893 291.774> 362 40<21.0148 108 195 311.985>
VStem: 108 87<33.6051 362 402 531.971>
LayerCount: 3
Fore
SplineSet
246 27 m 0
 308 27 308 91 331 95 c 0
 335 96 349 92 349 81 c 0
 349 79 342 -12 218 -12 c 0
 122 -12 108 25 108 63 c 2
 108 362 l 1
 40 360 l 2
 26 360 21 363 21 383 c 0
 21 399 24 404 38 404 c 0
 45 404 94 402 108 402 c 1
 108 504 l 2
 108 530 109 532 134 532 c 2
 169 532 l 2
 193 532 195 530 195 504 c 2
 195 402 l 1
 291 404 l 2
 308 404 312 400 312 383 c 0
 312 363 307 360 293 360 c 2
 195 362 l 1
 195 68 l 2
 195 46 209 27 246 27 c 0
EndSplineSet
Validated: 1
EndChar

StartChar: u
Encoding: 117 117 20
Width: 547
VWidth: 0
Flags: W
HStem: -12 49<193.168 297.036> -6 37<456 532.907> 363 40<12.0118 94 287.012 369>
VStem: 94 87<48.7466 367> 369 87<31 91 95.1662 367>
LayerCount: 3
Fore
SplineSet
369 141 m 2xb8
 369 367 l 1
 306 364 310 363 302 363 c 0
 291 363 287 364 287 382 c 0
 287 398 290 403 304 403 c 0
 439 403 458 402 458 402 c 1
 458 402 456 298 456 257 c 2
 456 31 l 1
 517 33 l 2
 530 33 533 29 533 16 c 0
 533 -2 528 -4 514 -4 c 0
 467 -4 492 -4 373 -6 c 1x78
 372 91 l 1
 372 91 328 -12 213 -12 c 0
 101 -12 94 45 94 111 c 2
 94 367 l 1
 31 364 35 363 27 363 c 0
 16 363 12 364 12 382 c 0
 12 398 15 403 29 403 c 0
 156 403 183 402 183 402 c 1
 182 352 181 302 181 252 c 2
 181 103 l 2
 181 59 203 37 241 37 c 0
 333 37 369 127 369 141 c 2xb8
EndSplineSet
Validated: 1
EndChar

StartChar: v
Encoding: 118 118 21
Width: 536
VWidth: 0
Flags: HMW
HStem: -12 21G<248 263.5> 368 34<12.0037 96.1636 183 254.996 322.004 387 424.53 494.996>
DStem2: 183 369 89 369 0.351718 -0.936106<0 282.536> 281 104 288 32 0.371391 0.928477<0 285.414>
LayerCount: 3
Fore
SplineSet
254 -12 m 2
 242 -12 238 -7 223 33 c 0
 190 118 140 249 89 369 c 1
 38 367 35 367 29 367 c 0
 16 367 12 371 12 385 c 0
 12 403 17 404 31 404 c 2
 31 404 94 402 135 402 c 24
 174 402 236 404 236 404 c 2
 250 404 255 403 255 385 c 0
 255 371 251 367 238 367 c 0
 233 367 225 367 183 369 c 1
 216 281 267 147 281 104 c 1
 387 369 l 1
 355 367 343 367 339 367 c 0
 326 367 322 371 322 385 c 0
 322 403 327 404 341 404 c 2
 341 404 389 402 405 402 c 0
 418 402 476 404 476 404 c 2
 490 404 495 403 495 385 c 0
 495 371 491 367 478 367 c 0
 473 367 469 367 432 369 c 1
 379 253 323 118 288 32 c 0
 270 -11 269 -12 258 -12 c 2
 254 -12 l 2
EndSplineSet
Validated: 1
EndChar

StartChar: w
Encoding: 119 119 22
Width: 716
VWidth: 0
Flags: HMW
HStem: -12 21G<224.5 237 473.5 492> 368 34<10.0037 81.7366 165 224.996 282.004 326 411 478.996 535.004 600 635.931 702.996>
DStem2: 165 369 74 369 0.324646 -0.945836<0 279.215> 253 104 262 32 0.330191 0.943914<0 213.637> 411 369 354 295 0.358122 -0.933675<48.679 280.106> 507 104 517 32 0.331143 0.94358<0 280.845>
LayerCount: 3
Fore
SplineSet
484 -12 m 2
 463 -12 456 37 354 295 c 1
 262 32 l 2
 247 -11 241 -12 233 -12 c 2
 229 -12 l 2
 220 -12 213 -7 199 33 c 0
 163 138 105 296 74 369 c 1
 23 367 33 367 27 367 c 0
 14 367 10 371 10 385 c 0
 10 403 15 404 29 404 c 2
 29 404 74 402 115 402 c 0
 154 402 206 404 206 404 c 2
 220 404 225 403 225 385 c 0
 225 371 221 367 208 367 c 0
 203 367 207 367 165 369 c 1
 198 280 226 183 253 104 c 1
 332 351 l 1
 326 368 l 1
 323 368 303 367 299 367 c 0
 286 367 282 371 282 385 c 0
 282 403 287 404 301 404 c 2
 301 404 349 402 365 402 c 0
 404 402 460 404 460 404 c 2
 474 404 479 403 479 385 c 0
 479 371 475 367 462 367 c 0
 457 367 422 369 411 369 c 1
 448 274 484 174 507 104 c 1
 600 369 l 1
 568 367 556 367 552 367 c 0
 539 367 535 371 535 385 c 0
 535 403 540 404 554 404 c 2
 554 404 599 402 615 402 c 0
 628 402 684 404 684 404 c 2
 698 404 703 403 703 385 c 0
 703 371 699 367 686 367 c 0
 681 367 679 367 642 369 c 1
 600 260 532 76 517 32 c 0
 503 -12 496 -12 488 -12 c 2
 484 -12 l 2
EndSplineSet
Validated: 1
EndChar

StartChar: x
Encoding: 120 120 23
Width: 506
VWidth: 0
Flags: MW
HStem: 0 34<9.02729 95 144 196.973 232.027 319 422 495.973> 368 34<14.0037 80 183 244.996 290.004 331 377 472.996>
DStem2: 183 369 80 369 0.591017 -0.806659<0 126.749 189.541 351.416> 95 33 144 33 0.574769 0.818316<28.1637 165.29 274.857 410.6>
LayerCount: 3
Fore
SplineSet
207 196 m 1
 190 217 l 1
 80 369 l 1
 80 369 37 367 31 367 c 0
 18 367 14 371 14 385 c 0
 14 403 19 404 33 404 c 2
 33 404 88 402 126 402 c 0
 165 402 226 404 226 404 c 2
 240 404 245 403 245 385 c 0
 245 371 241 367 228 367 c 0
 223 367 190 369 183 369 c 1
 244 277 l 1
 259 251 l 1
 281 293 307 330 331 369 c 1
 331 369 311 367 307 367 c 0
 294 367 290 371 290 385 c 0
 290 403 295 404 309 404 c 2
 309 404 357 402 373 402 c 0
 386 402 454 404 454 404 c 2
 468 404 473 403 473 385 c 0
 473 371 469 367 456 367 c 0
 451 367 414 367 377 369 c 1
 293 245 l 1
 279 228 l 1
 289 216 l 1
 422 33 l 1
 475 34 l 2
 492 34 496 32 496 17 c 0
 496 -1 491 -3 477 -3 c 2
 477 -3 420 0 383 0 c 0
 340 0 251 -3 251 -3 c 2
 237 -3 232 -1 232 17 c 0
 232 32 236 34 253 34 c 2
 319 33 l 1
 241 146 l 1
 228 167 l 1
 216 150 l 1
 144 33 l 1
 181 34 l 2
 194 34 197 30 197 17 c 0
 197 1 193 -3 182 -3 c 0
 175 -3 124 0 109 0 c 0
 75 0 32 -3 24 -3 c 0
 13 -3 9 1 9 17 c 0
 9 32 13 34 30 34 c 2
 95 33 l 1
 193 176 l 1
 207 196 l 1
EndSplineSet
Validated: 1
EndChar

StartChar: y
Encoding: 121 121 24
Width: 516
VWidth: 0
Flags: HMW
HStem: -265 36<114.015 163.266> 368 34<12.0037 89 183 254.996 314.004 379 417.546 496.996>
VStem: 27 87<-228.77 -158.376>
DStem2: 183 369 89 369 0.398526 -0.917157<0 287.283> 294 104 305 32 0.309833 0.950791<0 278.295>
LayerCount: 3
Fore
SplineSet
235 33 m 2
 89 369 l 1
 38 367 35 367 29 367 c 0
 16 367 12 371 12 385 c 0
 12 403 17 404 31 404 c 2
 31 404 94 402 135 402 c 24
 174 402 236 404 236 404 c 2
 250 404 255 403 255 385 c 0
 255 371 251 367 238 367 c 0
 233 367 225 367 183 369 c 1
 216 281 280 147 294 104 c 1
 318 180 351 274 379 369 c 1
 347 367 335 367 331 367 c 0
 318 367 314 371 314 385 c 0
 314 403 319 404 333 404 c 2
 333 404 381 402 397 402 c 0
 410 402 478 404 478 404 c 2
 492 404 497 403 497 385 c 0
 497 371 493 367 480 367 c 0
 475 367 461 367 424 369 c 1
 378 254 334 113 305 32 c 0
 271 -62 238 -265 116 -265 c 0
 74 -265 27 -241 27 -199 c 0
 27 -167 44 -135 76 -135 c 0
 112 -135 121 -152 121 -171 c 0
 121 -186 114 -207 114 -215 c 0
 114 -221 116 -229 128 -229 c 0
 203 -229 250 -34 250 -15 c 0
 250 5 238 25 235 33 c 2
EndSplineSet
Validated: 1
EndChar

StartChar: z
Encoding: 122 122 25
Width: 402
VWidth: 0
Flags: W
HStem: 0 37<134 311.082> 368 34<77.8403 244>
VStem: 26 26<268.001 326.623> 344 32<81.4705 157.168>
DStem2: 37 40 134 37 0.533702 0.845673<49.2321 387.857>
LayerCount: 3
Fore
SplineSet
26 275 m 2
 26 352 l 2
 26 401 26 402 47 402 c 2
 334 402 l 2
 345 402 347 401 347 393 c 0
 347 388 342 378 336 368 c 2
 134 37 l 1
 195 37 l 2
 318 37 315 46 344 118 c 0
 355 147 352 158 365 158 c 0
 375 158 376 154 376 141 c 2
 376 41 l 2
 376 2 376 0 360 0 c 2
 39 0 l 2
 23 0 21 4 21 11 c 0
 21 16 32 32 37 40 c 2
 244 368 l 1
 165 368 l 2
 60 368 72 354 52 273 c 0
 51 269 45 268 39 268 c 0
 33 268 26 269 26 275 c 2
EndSplineSet
Validated: 1
EndChar

StartChar: A
Encoding: 65 65 26
Width: 747
VWidth: 0
Flags: W
HStem: -3 41<25.0206 122 176 270.979 383.027 491 609 713.973> 237 38<262.724 406.294> 653 20G<357.5 379.5>
DStem2: 122 36 176 36 0.335519 0.942034<18.118 238.701 278.937 509.792> 406 616 348 469 0.330859 -0.94368<85.418 315.249 357.815 389.236>
LayerCount: 3
Fore
SplineSet
286 275 m 2
 373 275 l 2
 396 275 407 276 407 282 c 0
 407 288 402 300 398 313 c 2
 348 469 l 2
 342 489 339 501 336 501 c 0
 333 501 328 491 321 469 c 2
 269 309 l 2
 265 296 262 287 262 282 c 0
 262 275 269 275 286 275 c 2
176 36 m 1
 238 38 246 38 254 38 c 0
 268 38 271 33 271 19 c 0
 271 1 266 -3 252 -3 c 2
 252 -3 204 0 148 0 c 0
 90 0 44 -3 44 -3 c 2
 30 -3 25 1 25 19 c 0
 25 33 28 38 42 38 c 0
 50 38 59 38 122 36 c 1
 330 620 l 2
 346 665 348 673 367 673 c 0
 392 673 389 664 406 616 c 2
 609 37 l 1
 693 38 l 2
 710 38 714 34 714 19 c 0
 714 1 709 -3 695 -3 c 2
 695 -3 598 0 542 0 c 0
 484 0 402 -3 402 -3 c 2
 388 -3 383 1 383 19 c 0
 383 34 387 38 404 38 c 2
 491 37 l 1
 433 213 l 2
 425 237 426 237 395 237 c 2
 272 237 l 2
 240 237 244 236 232 201 c 2
 176 36 l 1
EndSplineSet
Validated: 1
Layer: 2
SplineSet
286 275 m 6
 373 275 l 6
 396 275 407 276 407 282 c 4
 407 288 402 300 398 313 c 6
 348 469 l 6
 342 489 339 501 336 501 c 4
 333 501 328 491 321 469 c 6
 269 309 l 6
 265 296 262 287 262 282 c 4
 262 275 269 275 286 275 c 6
176 37 m 5
 250 38 l 6
 267 38 271 34 271 19 c 4
 271 1 266 -3 252 -3 c 6
 252 -3 204 0 148 0 c 4
 90 0 44 -3 44 -3 c 6
 30 -3 25 1 25 19 c 4
 25 34 29 38 46 38 c 6
 122 37 l 5
 330 620 l 6
 346 665 348 673 367 673 c 4
 392 673 389 664 406 616 c 6
 609 37 l 5
 693 38 l 6
 710 38 714 34 714 19 c 4
 714 1 709 -3 695 -3 c 6
 695 -3 598 0 542 0 c 4
 484 0 402 -3 402 -3 c 6
 388 -3 383 1 383 19 c 4
 383 34 387 38 404 38 c 6
 491 37 l 5
 433 213 l 6
 424.715820312 236.901367188 426 237 395 237 c 6
 272 237 l 6
 240 237 243.956313266 236.014917421 232 201 c 6
 176 37 l 5
EndSplineSet
EndChar

StartChar: B
Encoding: 66 66 27
Width: 641
VWidth: 0
Flags: HW
HStem: -3 40<24.0334 134 241 435.483> 334 35<243 365.97> 626 40<24.0334 134 241 401.523>
VStem: 134 107<37 334 369 626> 451 105<450.299 582.259> 492 115<91.776 259.375>
LayerCount: 3
Fore
SplineSet
241 626 m 1xf8
 243 369 l 1
 357 369 451 396 451 506 c 0
 451 617 375 626 292 626 c 2
 241 626 l 1xf8
243 334 m 1
 241 37 l 1
 343 37 l 2
 402 37 492 44 492 184 c 0xf4
 492 314 403 337 311 337 c 0
 288 337 284 336 243 334 c 1
397 363 m 1
 408 354 607 346 607 174 c 0xf4
 607 12 473 -3 380 -3 c 2
 336 -3 l 2
 287 -3 240 0 192 0 c 0
 134 0 43 -3 43 -3 c 2
 29 -3 24 1 24 19 c 0
 24 34 28 38 45 38 c 2
 134 37 l 1
 136 414 l 2
 136 487 135 560 134 626 c 1
 45 625 l 2
 28 625 24 629 24 644 c 0
 24 662 29 666 43 666 c 2
 43 666 131 663 187 663 c 0
 235 663 321 666 336 666 c 2
 358 666 l 2
 426 666 556 658 556 514 c 0xf8
 556 405 397 363 397 363 c 1
EndSplineSet
Validated: 1
EndChar

StartChar: C
Encoding: 67 67 28
Width: 715
VWidth: 0
Flags: HW
HStem: -20 37<303.05 480.49> 647 36<292.678 494.976>
VStem: 32 137<198.771 484.665> 608.221 34.7788<172.763 249.927 465.017 525.13>
LayerCount: 3
Fore
SplineSet
169 324 m 0
 169 188 225 17 380 17 c 0
 494 17 569 63 602 212 c 0
 608 239 604 250 628 250 c 0
 642 250 644 241 644 223 c 2
 643 69 l 2
 643 33 641 38 614 27 c 0
 571 9 480 -20 376 -20 c 0
 140 -20 32 138 32 340 c 0
 32 594 189 683 393 683 c 0
 481 683 550 665 592 650 c 0
 641 633 636 635 637 606 c 0
 642 509 643 497 643 485 c 0
 643 476 643 465 625 465 c 0
 614 465 612.206304704 470.850892827 608.221152516 481.999999167 c 0
 600 505 583.103926193 551.620092259 550 593 c 0
 522 627 460 647 395 647 c 0
 176 647 169 474 169 324 c 0
EndSplineSet
Validated: 524289
EndChar

StartChar: D
Encoding: 68 68 29
Width: 795
VWidth: 0
Flags: W
HStem: 0 37<31.0037 143 247 477.541> 626 37<31.0037 143 252 479.244>
VStem: 143 104<37 626> 600 131<191.193 482.817>
LayerCount: 3
Fore
SplineSet
386 626 m 2
 252 626 l 1
 247 124 247 467 247 106 c 2
 247 37 l 1
 381 37 l 2
 590 37 600 204 600 328 c 0
 600 504 554 626 386 626 c 2
197 0 m 0
 140 0 50 -3 50 -3 c 2
 36 -3 31 1 31 19 c 0
 31 34 35 38 52 38 c 2
 143 37 l 1
 143 626 l 1
 52 625 l 2
 35 625 31 629 31 644 c 0
 31 662 36 666 50 666 c 2
 50 666 138 663 194 663 c 0
 254 663 330 668 373 668 c 0
 510 668 731 657 731 333 c 0
 731 54 541 -4 390 -4 c 0
 342 -4 255 0 197 0 c 0
EndSplineSet
Validated: 1
Layer: 2
SplineSet
386 626 m 6
 252 626 l 5
 247 124 247 467 247 106 c 6
 247 37 l 5
 381 37 l 6
 585 37 600 186 600 328 c 20
 600 520 546 626 386 626 c 6
197 0 m 4
 140 0 50 -3 50 -3 c 6
 36 -3 31 1 31 19 c 4
 31 34 35 38 52 38 c 6
 143 37 l 5
 143 626 l 5
 52 625 l 6
 35 625 31 629 31 644 c 4
 31 662 36 666 50 666 c 6
 50 666 138 663 194 663 c 4
 254 663 330 668 373 668 c 4
 525 668 733 660 733 333 c 4
 733 43 553 -4 390 -4 c 4
 342 -4 255 0 197 0 c 4
EndSplineSet
EndChar

StartChar: E
Encoding: 69 69 30
Width: 709
VWidth: 0
Flags: W
HStem: -2 39<24.0273 136 243 539.732> 328 31<243 365.09> 626 37<24.0037 136 243 506.482>
VStem: 136 107<37 328 359 626> 420 34<176.002 281.377 417.261 517.967> 565 41<484.295 574.594> 615 37<133.465 231.993>
LayerCount: 3
Fore
SplineSet
598 -2 m 0
 466 0 328 0 192 0 c 0
 134 0 43 -3 43 -3 c 2
 29 -3 24 1 24 19 c 0
 24 34 28 38 45 38 c 2
 136 37 l 1
 136 626 l 1
 45 625 l 2
 28 625 24 629 24 644 c 0
 24 662 29 666 43 666 c 2
 43 666 131 663 187 663 c 0
 380 663 484 665 578 665 c 0
 602 665 606 663 606 634 c 2
 606 499 l 2
 606 485 602 484 590 484 c 0
 578 484 577 486 565 529 c 0
 541 620 473 626 374 626 c 2
 243 626 l 1
 243 359 l 1
 309 359 l 2
 367 359 420 396 420 507 c 0
 420 518 431 518 441 518 c 0
 448 518 454 513 454 505 c 0
 454 466 448 391 448 348 c 0
 448 296 454 213 454 186 c 0
 454 179 445 176 437 176 c 0
 429 176 420 179 420 186 c 0
 420 320 361 328 304 328 c 2
 243 328 l 1
 243 37 l 1
 418 37 l 2
 529 37 591 44 615 212 c 0
 617 227 616 232 634 232 c 0
 649 232 652 223 652 210 c 0
 652 202 651 192 651 183 c 2
 648 39 l 2
 647 0 646 -2 598 -2 c 0
EndSplineSet
Validated: 1
Layer: 2
SplineSet
598 0 m 6
 192 0 l 6
 134 0 43 -3 43 -3 c 6
 29 -3 24 1 24 19 c 4
 24 34 28 38 45 38 c 6
 136 37 l 5
 136 626 l 5
 45 625 l 6
 28 625 24 629 24 644 c 4
 24 662 29 666 43 666 c 6
 43 666 131 663 187 663 c 6
 578 663 l 6
 602 663 606 663 606 634 c 6
 606 499 l 6
 606 485 602.05 484 590 484 c 4
 578 484 577 486 565 529 c 4
 541 620 473 626 374 626 c 6
 243 626 l 5
 243 359 l 5
 309 359 l 6
 367 359 420 396 420 507 c 4
 420 518 431 518 441 518 c 4
 448 518 454 513 454 505 c 4
 454 466 448 391 448 348 c 4
 448 296 454 213 454 186 c 4
 454 179 445 176 437 176 c 4
 429 176 420 179 420 186 c 4
 420 320 361 328 304 328 c 6
 243 328 l 5
 243 37 l 5
 418 37 l 6
 529 37 591 44 615 212 c 4
 617 227 616 232 634 232 c 4
 649 232 652 223 652 210 c 4
 652 202 651 192 651 183 c 6
 648 39 l 6
 647 0 646 0 598 0 c 6
EndSplineSet
EndChar

StartChar: F
Encoding: 70 70 31
Width: 659
VWidth: 0
Flags: W
HStem: -3 41<24.0273 136 243 354.973> 330 31<243 380.283> 626 37<24.0037 133 243 522.017>
VStem: 136 107<37 330 361 626> 432 34<188.007 283.829 412.875 509.853> 595 30<453.083 503.474>
LayerCount: 3
Fore
SplineSet
192 0 m 0
 134 0 43 -3 43 -3 c 2
 29 -3 24 1 24 19 c 0
 24 34 28 38 45 38 c 2
 136 37 l 1
 136 352 l 2
 136 454 133 626 133 626 c 1
 45 625 l 2
 28 625 24 629 24 644 c 0
 24 662 29 666 43 666 c 2
 43 666 131 663 187 663 c 0
 380 663 554 665 588 665 c 0
 612 665 614 663 616 634 c 2
 625 467 l 2
 625 456 619 453 612 453 c 0
 606 453 597 455 595 462 c 0
 541 624 526 626 417 626 c 2
 243 626 l 1
 243 361 l 1
 321 361 l 2
 428 361 430 460 432 479 c 0
 434 506 437 510 453 510 c 0
 463 510 466 502 466 485 c 0
 466 461 460 417 460 350 c 0
 460 268 466 227 466 207 c 0
 466 191 462 188 449 188 c 0
 432 188 432 198 432 208 c 0
 423 328 371 330 316 330 c 2
 243 330 l 1
 243 37 l 1
 334 38 l 2
 351 38 355 34 355 19 c 0
 355 1 350 -3 336 -3 c 2
 336 -3 248 0 192 0 c 0
EndSplineSet
Validated: 1
Layer: 2
SplineSet
192 0 m 4
 134 0 43 -3 43 -3 c 6
 29 -3 24 1 24 19 c 4
 24 34 28 38 45 38 c 6
 136 37 l 5
 136 352 l 6
 136 454 133 626 133 626 c 5
 45 625 l 6
 28 625 24 629 24 644 c 4
 24 662 29 666 43 666 c 6
 43 666 131 663 187 663 c 6
 588 663 l 6
 612 663 614 663 616 634 c 6
 625 467 l 6
 625 456 619 453 612 453 c 4
 606 453 597 455 595 462 c 4
 541 624 526 626 417 626 c 6
 243 626 l 5
 243 361 l 5
 321 361 l 6
 428 361 430 460 432 479 c 4
 434 506 437 510 453 510 c 4
 463 510 466 502 466 485 c 4
 466 461 460 417 460 350 c 4
 460 268 466 227 466 207 c 4
 466 191 462 188 449 188 c 4
 432 188 432 198 432 208 c 4
 423 328 371 330 316 330 c 6
 243 330 l 5
 243 37 l 5
 334 38 l 6
 351 38 355 34 355 19 c 4
 355 1 350 -3 336 -3 c 6
 336 -3 248 0 192 0 c 4
EndSplineSet
EndChar

StartChar: G
Encoding: 71 71 32
Width: 777
VWidth: 0
Flags: W
HStem: -20 37<304.942 474.28> 269 43<390.003 529 645 752.964> 647 36<306.529 492.481>
VStem: 34 127<197.452 473.303> 532 107<59.4342 268> 618 35<458.008 521.281>
LayerCount: 3
Fore
SplineSet
380 17 m 0xf4
 474.32421875 17 532 57.64375 532 110 c 2
 532 193 l 2
 532 218 529 268 529 268 c 1
 529 268 527 269 401 269 c 0
 390 269 390 280 390 290 c 0
 390 297 391 312 403 312 c 0
 442 312 537 308 580 308 c 0
 632 308 715 312 742 312 c 0
 750 312 753 302 753 292 c 0
 753 281 749 269 742 269 c 0
 701 269 645 268 645 268 c 1
 645 268 639 192 639 120 c 2
 639 83 l 2xf8
 639 45 636 47 614 37 c 0
 572 18 480 -20 376 -20 c 0
 140 -20 34 138 34 340 c 0
 34 562 180 683 393 683 c 0
 481 683 560 660 602 645 c 0
 651 628 646 630 647 601 c 0
 652 504 653 490 653 478 c 0
 653 469 655 458 635 458 c 0
 622 458 622 464 618 475 c 0
 602 521 571 647 395 647 c 0
 229 647 161 497 161 344 c 0
 161 182 237 17 380 17 c 0xf4
EndSplineSet
Validated: 524289
EndChar

StartChar: H
Encoding: 72 72 33
Width: 822
VWidth: 0
Flags: HW
HStem: -3 41<23.0273 134 241 353.973 461.027 573 682 791.973> 324 38<241 573> 625 41<23.0273 131 243 353.973 461.027 572 680 791.973>
VStem: 134 107<37 324 362 626> 573 109<37 324 362 626>
LayerCount: 3
Fore
SplineSet
241 37 m 1
 333 38 l 2
 350 38 354 34 354 19 c 0
 354 1 349 -3 335 -3 c 2
 335 -3 248 0 192 0 c 0
 134 0 42 -3 42 -3 c 2
 28 -3 23 1 23 19 c 0
 23 34 27 38 44 38 c 2
 134 37 l 1
 131 626 l 1
 44 625 l 2
 27 625 23 629 23 644 c 0
 23 662 28 666 42 666 c 2
 42 666 131 663 187 663 c 0
 245 663 335 666 335 666 c 2
 349 666 354 662 354 644 c 0
 354 629 350 625 333 625 c 2
 243 626 l 1
 241 362 l 1
 573 362 l 1
 572 626 l 1
 482 625 l 2
 465 625 461 629 461 644 c 0
 461 662 466 666 480 666 c 2
 480 666 568 663 624 663 c 0
 682 663 773 666 773 666 c 2
 787 666 792 662 792 644 c 0
 792 629 788 625 771 625 c 2
 680 626 l 1
 681 233 682 37 682 37 c 1
 771 38 l 2
 788 38 792 34 792 19 c 0
 792 1 787 -3 773 -3 c 2
 773 -3 685 0 629 0 c 0
 571 0 480 -3 480 -3 c 2
 466 -3 461 1 461 19 c 0
 461 34 465 38 482 38 c 2
 573 37 l 1
 573 324 l 1
 241 324 l 1
 241 37 l 1
EndSplineSet
Validated: 1
EndChar

StartChar: I
Encoding: 73 73 34
Width: 385
VWidth: 0
Flags: HW
HStem: 0 37<24.0037 136 243 354.996> 626 37<24.0037 133 243 354.996>
VStem: 136 107<37 626>
LayerCount: 3
Fore
SplineSet
243 37 m 1
 334 38 l 2
 351 38 355 34 355 19 c 0
 355 1 350 -3 336 -3 c 2
 336 -3 248 0 192 0 c 24
 134 0 43 -3 43 -3 c 2
 29 -3 24 1 24 19 c 0
 24 34 28 38 45 38 c 2
 136 37 l 1
 136 590 134 546 133 626 c 1
 45 625 l 2
 28 625 24 629 24 644 c 0
 24 662 29 666 43 666 c 2
 43 666 131 663 187 663 c 24
 245 663 336 666 336 666 c 2
 350 666 355 662 355 644 c 0
 355 629 351 625 334 625 c 2
 243 626 l 1
 243 37 l 1
EndSplineSet
Validated: 1
EndChar

StartChar: J
Encoding: 74 74 35
Width: 475
VWidth: 0
Flags: HW
HStem: -12 34<122.986 204.464> 626 37<101.004 228 335 436.996>
VStem: 228 107<48.0947 626>
LayerCount: 3
Fore
SplineSet
95 149 m 0
 132 149 152 124 152 94 c 0
 152 56 120 44 120 44 c 1
 120 44 120 22 168 22 c 0
 225 22 228 81 228 192 c 2
 228 626 l 1
 122 625 l 2
 105 625 101 629 101 644 c 0
 101 662 106 666 120 666 c 2
 120 666 217 663 279 663 c 0
 333 663 418 666 418 666 c 2
 432 666 437 662 437 644 c 0
 437 629 433 625 416 625 c 2
 335 626 l 1
 335 184 l 2
 335 74 326 -12 184 -12 c 0
 82 -12 32 45 32 91 c 0
 32 122 50 149 95 149 c 0
EndSplineSet
Validated: 1
EndChar

StartChar: K
Encoding: 75 75 36
Width: 726
VWidth: 0
Flags: W
HStem: 0 37<21.0037 132 242 351.996 591.366 678.899> 337 36<238 312> 625 41<21.0273 130 238 349.973 406.027 494 560 644.973>
VStem: 134 104<39 335 373 626>
DStem2: 312 378 361 373 0.618233 0.785995<26.3634 307.445>
LayerCount: 3
Fore
SplineSet
494 626 m 1
 427 625 l 2
 410 625 406 629 406 644 c 0
 406 662 411 666 425 666 c 2
 425 666 492 663 529 663 c 0
 568 663 626 666 626 666 c 2
 640 666 645 662 645 644 c 0
 645 629 641 625 624 625 c 2
 560 626 l 1
 361 373 l 1
 401 365 489 344 522 293 c 0
 570 220 539 148 574 74 c 0
 594 33 662 41 687 37 c 0
 697 36 700 32 700 17 c 0
 700 0 693 -5 679 -5 c 2
 679 -5 540 -1 526 2 c 0
 431 24 448 150 428 229 c 0
 404 322 326 337 274 337 c 0
 259 337 246 336 238 335 c 1
 238 239 239 137 242 37 c 1
 331 38 l 2
 348 38 352 34 352 19 c 0
 352 1 347 -3 333 -3 c 2
 333 -3 245 0 189 0 c 0
 131 0 40 -3 40 -3 c 2
 26 -3 21 1 21 19 c 0
 21 34 25 38 42 38 c 2
 132 39 l 1
 133 91 134 154 134 234 c 0
 134 335 133 462 130 626 c 1
 42 625 l 2
 25 625 21 629 21 644 c 0
 21 662 26 666 40 666 c 2
 40 666 128 663 184 663 c 0
 241 663 331 666 331 666 c 2
 345 666 350 662 350 644 c 0
 350 629 346 625 329 625 c 2
 238 626 l 1
 238 373 l 1
 279 376 297 378 312 378 c 1
 494 626 l 1
EndSplineSet
Validated: 1
EndChar

StartChar: L
Encoding: 76 76 37
Width: 709
VWidth: 0
Flags: HW
HStem: -2 39<24.0273 131 243 532.245> 626 37<24.0037 136 243 374.996>
VStem: 136 107<37 626> 630 31<161.558 265.624>
LayerCount: 3
Fore
SplineSet
620 -2 m 0
 590 -2 483 0 192 0 c 0
 134 0 43 -3 43 -3 c 2
 29 -3 24 1 24 19 c 0
 24 34 28 38 45 38 c 2
 131 37 l 1
 134 87 136 303 136 486 c 2
 136 626 l 1
 45 625 l 2
 28 625 24 629 24 644 c 0
 24 662 29 666 43 666 c 2
 43 666 131 663 187 663 c 0
 253 663 356 666 356 666 c 2
 370 666 375 662 375 644 c 0
 375 629 371 625 354 625 c 2
 243 626 l 1
 243 37 l 1
 350 37 l 2
 524 37 536 54 560 71 c 0
 612 108 632 190 635 235 c 0
 637 264 640 266 648 266 c 2
 653 266 l 2
 665 266 668 266 668 236 c 2
 666 47 l 2
 666 8 662 -2 620 -2 c 0
EndSplineSet
Validated: 1
EndChar

StartChar: M
Encoding: 77 77 38
Width: 927
VWidth: 0
Flags: HW
HStem: -3 41<16.0206 115 162 266.979 568.027 680 787 898.973> 614 49<159.609 174.376> 626 37<16.0037 115 666.982 681.571 789 898.996>
VStem: 113 46<35 613.985> 682 107<37 622.992>
DStem2: 293 618 192 548 0.365652 -0.930751<-43.7249 451.248> 458 198 574 384 0.354499 0.935056<0 421.912>
LayerCount: 3
Fore
SplineSet
159 548 m 0xd8
 159 162 162 120 162 35 c 1
 232 38 241 38 250 38 c 0
 264 38 267 33 267 19 c 0
 267 1 262 -3 248 -3 c 2
 248 -3 185 0 144 0 c 24
 101 0 35 -3 35 -3 c 2
 21 -3 16 1 16 19 c 0
 16 33 19 38 33 38 c 0
 41 38 49 38 115 35 c 1
 114 151 113 274 113 394 c 0
 113 472 114 550 115 626 c 1
 37 625 l 2
 20 625 16 629 16 644 c 0
 16 662 21 666 35 666 c 0
 42 666 105 663 139 663 c 2
 248 663 l 2
 277 663 278 655 293 618 c 2
 458 198 l 1
 485 250 516 351 604 568 c 0
 640 658 646 663 669 663 c 2
 724 663 l 2
 788 663 846 666 880 666 c 0
 894 666 899 662 899 644 c 0
 899 629 895 625 878 625 c 2
 789 626 l 1xb8
 788 430 787 234 787 37 c 1
 878 38 l 2
 895 38 899 34 899 19 c 0
 899 1 894 -3 880 -3 c 2
 880 -3 792 0 736 0 c 24
 678 0 587 -3 587 -3 c 2
 573 -3 568 1 568 19 c 0
 568 34 572 38 589 38 c 2
 680 37 l 1
 680 342.573213363 682 383.13418519 682 590 c 0
 682 612 681 623 676 623 c 0
 672 623 628 528 574 384 c 2
 436 20 l 2
 434 14 428 12 422 12 c 0
 405 12 403 17 400 24 c 0
 328 190 239 427 192 548 c 0
 176 589 167 614 163 614 c 0
 160 614 159 594 159 548 c 0xd8
EndSplineSet
Validated: 524289
EndChar

StartChar: N
Encoding: 78 78 39
Width: 828
VWidth: 0
Flags: W
HStem: 0 35<31.0206 127 180 296.979> 625 41<31.0277 131.291 528.021 633 680 778.979>
VStem: 132 42<35 540.993> 637 42<182.007 628>
DStem2: 273 618 298 396 0.636241 -0.77149<-0.766295 565.925>
LayerCount: 3
Fore
SplineSet
132 571 m 0
 132 623 131 627 112 627 c 0
 101 627 84 625 56 625 c 0
 35 625 31 628 31 644 c 0
 31 662 36 666 50 666 c 0
 57 666 120 663 154 663 c 2
 218 663 l 2
 237 663 247 650 273 618 c 2
 607 213 l 2
 623 194 630 182 634 182 c 0
 637 182 637 191 637 213 c 0
 637 622 633 584 633 628 c 1
 563 625 554 625 545 625 c 0
 531 625 528 630 528 644 c 0
 528 662 533 666 547 666 c 2
 547 666 610 663 651 663 c 0
 694 663 760 666 760 666 c 2
 774 666 779 662 779 644 c 0
 779 630 776 625 762 625 c 0
 754 625 746 625 680 628 c 1
 680 568 l 2
 680 484 679 333 679 167 c 2
 679 38 l 2
 679 2 675 0 652 -0 c 2
 643 0 l 2
 629 0 619 12 615 16 c 2
 298 396 l 2
 213 498 186 541 178 541 c 0
 174 541 174 532 174 517 c 2
 174 447 l 2
 174 348 174 197 175 108 c 0
 175 64 180 35 180 35 c 1
 250 38 271 38 280 38 c 0
 294 38 297 33 297 19 c 0
 297 1 292 -3 278 -3 c 2
 278 -3 205 0 159 0 c 0
 116 0 50 -3 50 -3 c 2
 36 -3 31 1 31 19 c 0
 31 33 34 38 48 38 c 0
 56 38 61 38 127 35 c 1
 127 85 130 130 130 169 c 0
 130 370 132 491 132 571 c 0
EndSplineSet
Validated: 1
EndChar

StartChar: O
Encoding: 79 79 40
Width: 756
VWidth: 0
Flags: HW
HStem: -20 36<297.221 474.125> 646 37<293.551 466.102>
VStem: 35 130<208.503 454.966> 585 133<205.773 462.834>
LayerCount: 3
Fore
SplineSet
387 683 m 0
 610 683 718 510 718 336 c 0
 718 159 606 -20 390 -20 c 0
 153 -20 35 156 35 332 c 0
 35 507 153 683 387 683 c 0
385 646 m 0
 220 646 165 511 165 333 c 0
 165 133 230 16 388 16 c 0
 554 16 585 160 585 322 c 0
 585 484 556 646 385 646 c 0
EndSplineSet
Validated: 1
EndChar

StartChar: P
Encoding: 80 80 41
Width: 623
VWidth: 0
Flags: W
HStem: 0 37<44.0037 152 265 374.996> 299 36<265 421.074> 627 39<44.0596 156 263 413.909>
VStem: 152 113<37 299 335 347.904> 159 106<39.5737 299 335 626> 482 110<389.291 567.329>
LayerCount: 3
Fore
SplineSet
263 626 m 1xf4
 265 335 l 1
 328 335 l 2
 403 335 482 350 482 480 c 0
 482 615 382 627 318 627 c 0
 300 627 281 626 263 626 c 1xf4
265 299 m 1
 264 138 l 2
 264 104 265 37 265 37 c 1
 354 38 l 2
 371 38 375 34 375 19 c 0
 375 1 370 -3 356 -3 c 2
 356 -3 268 0 212 0 c 0
 154 0 63 -3 63 -3 c 2
 49 -3 44 1 44 19 c 0
 44 34 48 38 65 38 c 2
 152 37 l 1xf4
 156 91 159 203 159 355 c 0xec
 159 435 158 526 156 626 c 1
 65 625 l 2
 48 625 44 629 44 644 c 0
 44 662 49 666 63 666 c 2
 63 666 151 663 207 663 c 0
 267 663 355 666 357 666 c 0
 384 666 591 665 592 483 c 0
 592 320 501 296 358 296 c 0
 329 296 297 298 265 299 c 1
EndSplineSet
Validated: 1
Layer: 2
SplineSet
263 626 m 5
 265 335 l 5
 328 335 l 6
 403 335 482 350 482 480 c 4
 482 615 382 627 318 627 c 4
 300 627 281 626 263 626 c 5
265 298 m 5
 264 138 l 6
 264 104 265 37 265 37 c 5
 354 38 l 6
 371 38 375 34 375 19 c 4
 375 1 370 -3 356 -3 c 6
 356 -3 268 0 212 0 c 4
 154 0 63 -3 63 -3 c 6
 49 -3 44 1 44 19 c 4
 44 34 48 38 65 38 c 6
 152 37 l 5
 156 91 159 203 159 355 c 4
 159 435 158 526 156 626 c 5
 65 625 l 6
 48 625 44 629 44 644 c 4
 44 662 49 666 63 666 c 6
 63 666 151 663 207 663 c 4
 267 663 355 666 357 666 c 4
 384 666 591 665 592 483 c 4
 592 311 475 298 386 298 c 6
 265 298 l 5
EndSplineSet
EndChar

StartChar: Q
Encoding: 81 81 42
Width: 756
VWidth: 0
Flags: W
HStem: -254 38<502.002 593.991> -21 37<288.062 359.107 396 461.692> 646 37<267.155 443.426>
VStem: 31 127<183.84 469.642> 579 121<192.416 470.076>
LayerCount: 3
Fore
SplineSet
594 -235 m 0
 594 -253 582 -254 554 -254 c 2
 538 -254 l 2
 504 -254 462 -253 449 -250 c 0
 380 -236 377 -152 375 -98 c 0
 373 -54 358 -24 329 -21 c 0
 127 2 31 120 31 332 c 0
 31 507 124 683 376 683 c 0
 600 683 700 510 700 336 c 0
 700 161 614 -12 396 -20 c 1
 416 -32 453 -46 464 -60 c 0
 499 -108 476 -149 502 -198 c 0
 510 -213 530 -216 548 -216 c 0
 562 -216 562 -215 584 -215 c 0
 592 -215 594 -225 594 -235 c 0
364 646 m 0
 180 646 158 511 158 333 c 0
 158 133 222 16 377 16 c 0
 540 16 579 160 579 322 c 0
 579 484 520 646 364 646 c 0
EndSplineSet
Validated: 1
Layer: 2
SplineSet
364 646 m 0
 180 646 158 511 158 333 c 0
 158 133 222 16 377 16 c 0
 540 16 579 160 579 322 c 0
 579 484 520 646 364 646 c 0
376 683 m 0
 600 683 700 510 700 336 c 0
 700 159 618 -20 379 -20 c 0
 369 -20 336 -20 336 -28 c 0
 336 -42 434 -56 450 -112 c 0
 482 -227 495 -231 583 -231 c 2
 621 -231 l 2
 643 -231 646 -232 646 -242 c 0
 646 -248 649 -265 638 -266 c 0
 598 -270 575 -270 543 -270 c 0
 504 -270 460 -266 411 -255 c 0
 344 -240 339 -139 332 -110 c 4
 310 -17 267 -37 158 35 c 0
 68 95 31 199 31 332 c 0
 31 507 124 683 376 683 c 0
EndSplineSet
EndChar

StartChar: R
Encoding: 82 82 43
Width: 737
VWidth: 0
Flags: HW
HStem: 0 37<21.0037 130 240 351.996 601.604 709.954> 335 33<240 359.718> 627 39<21.0596 130 238 402.446>
VStem: 130 110<37 333 369 626> 451 115<434.26 585.172>
LayerCount: 3
Fore
SplineSet
240 333 m 1
 240 37 l 1
 331 38 l 2
 348 38 352 34 352 19 c 0
 352 1 347 -3 333 -3 c 2
 333 -3 245 0 189 0 c 0
 131 0 40 -3 40 -3 c 2
 26 -3 21 1 21 19 c 0
 21 34 25 38 42 38 c 2
 130 37 l 1
 133 142 133 243 133 346 c 0
 133 436 132 533 130 626 c 1
 42 625 l 2
 25 625 21 629 21 644 c 0
 21 662 26 666 40 666 c 2
 40 666 128 663 184 663 c 0
 254 663 306 666 358 666 c 0
 426 666 566 656 566 512 c 0
 566 394 466 373 433 365 c 0
 404 358 390 358 390 358 c 1
 390 358 498 345 532 293 c 0
 580 220 549 148 584 74 c 0
 602 35 682 39 700 37 c 0
 706 36 710 27 710 17 c 0
 710 -1 699 -5 683 -5 c 2
 683 -5 554 -1 541 2 c 0
 470 18 461 95 454 166 c 0
 438 325 368 335 294 335 c 0
 272 335 240 333 240 333 c 1
451 506 m 0
 451 618 388 627 296 627 c 0
 278 627 258 627 238 626 c 1
 240 369 l 1
 247 369 255 368 262 368 c 0
 357 368 451 404 451 506 c 0
EndSplineSet
Validated: 1
EndChar

StartChar: S
Encoding: 83 83 44
Width: 499
VWidth: 0
Flags: HW
HStem: -18 42<171.232 326.265> 635 43<159.067 319.705>
VStem: 35 39<142.32 231.995> 49 77<368 580.284> 386 74<109.734 293.5> 398 37<468.022 542.671>
LayerCount: 3
Fore
SplineSet
35 218 m 0xe8
 35 227 40 232 55 232 c 0
 69 232 71 225 74 209 c 0
 82 164 118 24 249 24 c 0
 319 24 386 71 386 141 c 0xe8
 386 316 49 247 49 489 c 0
 49 644 183 678 264 678 c 0
 338 678 397 658 422 641 c 0
 428 637 435 633 435 626 c 0
 435 594 434 562 434 530 c 0
 434 500 435 485 435 480 c 0
 435 471 431 468 419 468 c 0
 399 468 404 471 398 494 c 0
 380.588307722 566.134153722 345.279666367 635 233 635 c 4
 180 635 126 612 126 551 c 0xd4
 126 503 150 478 206 449 c 0
 303 398 460 379 460 208 c 0
 460 82 366 -18 238 -18 c 0
 176 -18 118 -7 80 6 c 0
 40 20 37 25 37 51 c 2
 37 118 l 2
 37 158 35 208 35 218 c 0xe8
EndSplineSet
Validated: 524289
Layer: 2
SplineSet
37 217 m 6xe8
 37 227 39 232 55 232 c 4
 69 232 71 225 74 209 c 4
 82 164 118 24 249 24 c 4
 319 24 386 71 386 141 c 4xe8
 386 316 49 247 49 489 c 4
 49 644 183 678 264 678 c 4
 325 678 391 653 416 636 c 4
 422 632 427 627 429 621 c 4
 430 618 429 630 435 476 c 4
 435 466 431 463 419 463 c 4
 399 463 404 466 398 489 c 4
 391 518 373 567 328 603 c 4
 305 621 268 635 233 635 c 4
 180 635 126 612 126 551 c 4xd4
 126 503 150 478 206 449 c 4
 303 398 460 379 460 208 c 4
 460 82 366 -18 238 -18 c 4
 176 -18 118 -7 80 6 c 4
 40 20 37 25 37 51 c 6
 37 217 l 6xe8
EndSplineSet
EndChar

StartChar: T
Encoding: 84 84 45
Width: 725
VWidth: 0
Flags: HW
HStem: 0 37<169.004 301 408 539.996> 626 37<129.231 303 408 595.763>
VStem: 301 107<37 626> 658 37<448.233 533.496>
LayerCount: 3
Fore
SplineSet
50 666 m 0
 108 666 304 663 352 663 c 0
 480 663 639 666 671 666 c 0
 690 666 692 664 692 647 c 0
 692 626 691 588 691 562 c 0
 691 504 695 469 695 465 c 0
 695 450 693 448 681 448 c 0
 663 448 664 456 658 477 c 0
 616 617 607 626 476 626 c 2
 408 626 l 1
 408 37 l 1
 519 38 l 2
 536 38 540 34 540 19 c 0
 540 1 535 -3 521 -3 c 2
 521 -3 421 0 357 0 c 0
 291 0 188 -3 188 -3 c 2
 174 -3 169 1 169 19 c 0
 169 34 173 38 190 38 c 2
 301 37 l 1
 301 37 299 190 299 288 c 24
 299 420 303 626 303 626 c 1
 252 626 l 2
 110 626 115 619 73 477 c 0
 68 461 71 440 45 440 c 0
 32 440 30 442 30 454 c 0
 30 465 33 520 33 565 c 0
 33 598 31 631 31 647 c 0
 31 662 33 666 50 666 c 0
EndSplineSet
Validated: 1
EndChar

StartChar: U
Encoding: 85 85 46
Width: 828
VWidth: 0
Flags: HW
HStem: -15 42<303.428 548.318> 625 41<44.0273 136 243 354.973 506.021 611 658 756.979>
VStem: 131 107<89.479 626> 611 47<418.765 628> 620 40<107.9 550.945>
LayerCount: 3
Fore
SplineSet
136 626 m 1xe8
 65 625 l 2
 48 625 44 629 44 644 c 0
 44 662 49 666 63 666 c 2
 63 666 139 663 187 663 c 24
 245 663 336 666 336 666 c 2
 350 666 355 662 355 644 c 0
 355 629 351 625 334 625 c 2
 243 626 l 1
 243 626 238 257 238 187 c 0
 238 42 325 27 417 27 c 0
 588 27 620 71 620 279 c 0xe8
 620 365 615 478 611 628 c 1
 541 625 532 625 523 625 c 0
 509 625 506 630 506 644 c 0
 506 662 511 666 525 666 c 2
 525 666 588 663 629 663 c 0
 672 663 738 666 738 666 c 2
 752 666 757 662 757 644 c 0
 757 630 754 625 740 625 c 0
 732 625 724 625 658 628 c 1xf0
 658 494 660 386 660 299 c 0
 660 62 631 -15 393 -15 c 0
 236 -15 131 0 131 180 c 0
 131 225 132 269 136 626 c 1xe8
EndSplineSet
Validated: 1
EndChar

StartChar: V
Encoding: 86 86 47
Width: 740
VWidth: 0
Flags: HW
HStem: 625 41<13.0273 34 107 110.898 313 333.973 456.021 475 612.937 620 688 706.979>
VStem: 107 120<562.761 626>
LayerCount: 3
Fore
SplineSet
620 628 m 1
 611 602 482 209 383 24 c 0
 364 -12 368 -14 356 -14 c 0
 342 -14 342 -5 328 24 c 0
 283 118 190 353 107 626 c 1
 34 625 l 2
 17 625 13 629 13 644 c 0
 13 662 18 666 32 666 c 2
 32 666 123 663 171 663 c 0
 229 663 315 666 315 666 c 2
 329 666 334 662 334 644 c 0
 334 629 330 625 313 625 c 2
 227 626 l 1
 253.254811698 525.181523078 376.098393429 157 394 157 c 0
 402 157 425 214 486 380 c 0
 516 460 536 524 562 628 c 1
 562 628 482 625 473 625 c 0
 459 625 456 630 456 644 c 0
 456 662 461 666 475 666 c 2
 475 666 548 663 589 663 c 0
 632 663 688 666 688 666 c 2
 702 666 707 662 707 644 c 0
 707 630 704 625 690 625 c 0
 682 625 620 628 620 628 c 1
EndSplineSet
Validated: 524289
EndChar

StartChar: W
Encoding: 87 87 48
Width: 1124
VWidth: 0
Flags: W
HStem: -14 21G<344 357 774 787> 611 52<539.619 556.877> 625 41<13.0273 110.894 227 313.973 396.021 495 664 768.973 851.021 939 989.723 1081.98>
VStem: 107 120<562.761 626> 939 60<569.142 627>
LayerCount: 3
Fore
SplineSet
999 628 m 1xb8
 984 608 887 231 806 24 c 0
 791 -14 793 -14 781 -14 c 0
 767 -14 767 -5 753 24 c 0
 711 112 638 326 560 578 c 0
 553 602 552 611 548 611 c 0xd8
 543 611 542 598 537 578 c 0
 509 465 443 190 378 24 c 0
 363 -14 363 -14 351 -14 c 0
 337 -14 337 -5 323 24 c 0
 278 118 190 353 107 626 c 1
 34 625 l 2
 17 625 13 629 13 644 c 0
 13 662 18 666 32 666 c 2xb8
 32 666 123 663 171 663 c 0xd8
 229 663 295 666 295 666 c 2
 309 666 314 662 314 644 c 0
 314 629 310 625 293 625 c 2
 227 626 l 1
 253 525 368 193 379 193 c 0
 394 193 458 448 495 625 c 1
 413 625 l 2
 399 625 396 630 396 644 c 0
 396 662 401 666 415 666 c 0xb8
 431 666 505 663 563 663 c 0xd8
 603 663 722 666 750 666 c 0
 764 666 769 662 769 644 c 0
 769 629 765 625 748 625 c 2
 664 626 l 1
 690 525 804 200 814 200 c 0
 833.442855286 200 921.269200166 556.141211416 939 627 c 1
 939 627 877 625 868 625 c 0
 854 625 851 630 851 644 c 0
 851 662 856 666 870 666 c 2xb8
 870 666 923 663 964 663 c 0xd8
 1007 663 1063 666 1063 666 c 2
 1077 666 1082 662 1082 644 c 0
 1082 630 1079 625 1065 625 c 0
 1057 625 999 628 999 628 c 1xb8
EndSplineSet
Validated: 524289
EndChar

StartChar: X
Encoding: 88 88 49
Width: 791
VWidth: 0
Flags: HW
HStem: -3 41<39.0206 143.676 192 291.979 418.027 530 659 753.973> 625 41<53.0273 168 298 393.973 486.021 572 620.697 736.979>
DStem2: 130 35 192 35 0.59713 0.802144<37.0221 355.001 529.238 739.603> 298 626 168 626 0.523613 -0.851956<0 246.262 317.861 623.28>
LayerCount: 3
Fore
SplineSet
346 336 m 1
 346 336 295 424 168 626 c 1
 74 625 l 2
 57 625 53 629 53 644 c 0
 53 662 58 666 72 666 c 2
 72 666 183 663 231 663 c 0
 289 663 375 666 375 666 c 2
 389 666 394 662 394 644 c 0
 394 629 390 625 373 625 c 2
 298 626 l 1
 357 528 424 417 424 417 c 1
 451 449 522 547 572 628 c 1
 572 628 512 625 503 625 c 0
 489 625 486 630 486 644 c 0
 486 662 491 666 505 666 c 2
 505 666 573 663 614 663 c 0
 657 663 718 666 718 666 c 2
 732 666 737 662 737 644 c 0
 737 630 734 625 720 625 c 0
 712 625 635 628 635 628 c 1
 600 574 480 410 452 374 c 1
 452 374 549 214 659 37 c 1
 733 38 l 2
 750 38 754 34 754 19 c 0
 754 1 749 -3 735 -3 c 2
 735 -3 642 0 586 0 c 0
 528 0 437 -3 437 -3 c 2
 423 -3 418 1 418 19 c 0
 418 34 422 38 439 38 c 2
 530 37 l 1
 428 214 373 297 373 297 c 1
 349 268 244 121 192 35 c 1
 262 38 266 38 275 38 c 0
 289 38 292 33 292 19 c 0
 292 1 287 -3 273 -3 c 2
 273 -3 205 0 164 0 c 0
 121 0 58 -3 58 -3 c 2
 44 -3 39 1 39 19 c 0
 39 33 42 38 56 38 c 0
 64 38 117 35 130 35 c 1
 201 145 305 283 346 336 c 1
EndSplineSet
Validated: 1
EndChar

StartChar: Y
Encoding: 89 89 50
Width: 745
VWidth: 0
Flags: HW
HStem: 0 37<186.004 316 427 556.996> 625 41<29.0273 110 248 351.973 466.021 559 602.632 716.979>
VStem: 317 107<37 342.937>
DStem2: 248 626 110 626 0.547419 -0.836859<0 289.41>
LayerCount: 3
Fore
SplineSet
284 360 m 2
 110 626 l 1
 50 625 l 2
 33 625 29 629 29 644 c 0
 29 662 34 666 48 666 c 2
 48 666 130 663 178 663 c 0
 236 663 333 666 333 666 c 2
 347 666 352 662 352 644 c 0
 352 629 348 625 331 625 c 2
 248 626 l 1
 293 551 364 449 395 405 c 0
 404 392 407 386 410 386 c 0
 413 386 416 390 426 403 c 0
 471 464 524 557 559 628 c 1
 559 628 492 625 483 625 c 0
 469 625 466 630 466 644 c 0
 466 662 471 666 485 666 c 2
 485 666 553 663 594 663 c 0
 637 663 698 666 698 666 c 2
 712 666 717 662 717 644 c 0
 717 630 714 625 700 625 c 0
 692 625 617 628 617 628 c 1
 556 530 490 421 461 378 c 0
 429 331 423 326 423 270 c 2
 424 190 l 2
 424 142 427 37 427 37 c 1
 536 38 l 2
 553 38 557 34 557 19 c 0
 557 1 552 -3 538 -3 c 2
 538 -3 438 0 374 0 c 0
 308 0 205 -3 205 -3 c 2
 191 -3 186 1 186 19 c 0
 186 34 190 38 207 38 c 2
 316 37 l 1
 316 37 317 146 317 190 c 0
 316 247 316 255 316 262 c 0
 314 324 315 312 284 360 c 2
EndSplineSet
Validated: 1
EndChar

StartChar: Z
Encoding: 90 90 51
Width: 622
VWidth: 0
Flags: HW
HStem: 0 37<146 454.103> 629 34<126.558 401>
VStem: 48 34<486.102 578.199> 538 38<113.447 197.478>
DStem2: 30 40 146 37 0.532966 0.846137<59.2856 696.105>
LayerCount: 3
Fore
SplineSet
48 613 m 0
 47 623 47 632 47 638 c 0
 47 663 48 665 69 665 c 0
 123 665 236 663 290 663 c 2
 506 663 l 2
 517 663 530 663 530 655 c 0
 530 647 524 639 518 629 c 0
 376 400 170 80 146 37 c 1
 350 37 l 2
 473 37 515 85 538 157 c 0
 549 190 545 198 563 198 c 0
 573 198 576 194 576 181 c 2
 576 41 l 2
 576 4 574 -2 560 -2 c 0
 555 -2 492 0 288 0 c 2
 39 0 l 2
 23 0 21 4 21 11 c 0
 21 16 25 32 30 40 c 2
 401 629 l 1
 192 629 l 2
 87 629 91 552 82 494 c 0
 81 490 75 486 69 486 c 0
 44 486 56 492 48 613 c 0
EndSplineSet
Validated: 1
EndChar

StartChar: period
Encoding: 46 46 53
Width: 240
VWidth: 0
Flags: W
HStem: 240 94<82.5012 158.468>
VStem: 70 100<251.852 326.6>
LayerCount: 3
Fore
SplineSet
70 294 m 4
 70 320 96 334 119 334 c 4
 143 334 170 320 170 293 c 4
 170 268 147 240 121 240 c 4
 95 240 70 268 70 294 c 4
EndSplineSet
Validated: 1
EndChar

StartChar: hyphen
Encoding: 45 45 54
Width: 240
VWidth: 0
Flags: W
HStem: 240 94<82.5012 158.468>
VStem: 70 100<251.852 326.6>
LayerCount: 3
Fore
SplineSet
70 294 m 4
 70 320 96 334 119 334 c 4
 143 334 170 320 170 293 c 4
 170 268 147 240 121 240 c 4
 95 240 70 268 70 294 c 4
EndSplineSet
Validated: 1
EndChar

StartChar: comma
Encoding: 44 44 55
Width: 240
VWidth: 0
Flags: W
HStem: 240 94<82.5012 158.468>
VStem: 70 100<251.852 326.6>
LayerCount: 3
Fore
SplineSet
70 294 m 4
 70 320 96 334 119 334 c 4
 143 334 170 320 170 293 c 4
 170 268 147 240 121 240 c 4
 95 240 70 268 70 294 c 4
EndSplineSet
Validated: 1
EndChar

StartChar: parenright
Encoding: 41 41 56
Width: 240
VWidth: 0
Flags: W
HStem: 240 94<82.5012 158.468>
VStem: 70 100<251.852 326.6>
LayerCount: 3
Fore
SplineSet
70 294 m 4
 70 320 96 334 119 334 c 4
 143 334 170 320 170 293 c 4
 170 268 147 240 121 240 c 4
 95 240 70 268 70 294 c 4
EndSplineSet
Validated: 1
EndChar

StartChar: parenleft
Encoding: 40 40 57
Width: 240
VWidth: 0
Flags: W
HStem: 240 94<82.5012 158.468>
VStem: 70 100<251.852 326.6>
LayerCount: 3
Fore
SplineSet
70 294 m 4
 70 320 96 334 119 334 c 4
 143 334 170 320 170 293 c 4
 170 268 147 240 121 240 c 4
 95 240 70 268 70 294 c 4
EndSplineSet
Validated: 1
EndChar

StartChar: ampersand
Encoding: 38 38 58
Width: 240
VWidth: 0
Flags: W
HStem: 240 94<82.5012 158.468>
VStem: 70 100<251.852 326.6>
LayerCount: 3
Fore
SplineSet
70 294 m 4
 70 320 96 334 119 334 c 4
 143 334 170 320 170 293 c 4
 170 268 147 240 121 240 c 4
 95 240 70 268 70 294 c 4
EndSplineSet
Validated: 1
EndChar

StartChar: exclam
Encoding: 33 33 59
Width: 240
VWidth: 0
Flags: W
HStem: 240 94<82.5012 158.468>
VStem: 70 100<251.852 326.6>
LayerCount: 3
Fore
SplineSet
70 294 m 4
 70 320 96 334 119 334 c 4
 143 334 170 320 170 293 c 4
 170 268 147 240 121 240 c 4
 95 240 70 268 70 294 c 4
EndSplineSet
Validated: 1
EndChar

StartChar: colon
Encoding: 58 58 70
Width: 240
VWidth: 0
Flags: W
HStem: 240 94<82.5012 158.468>
VStem: 70 100<251.852 326.6>
LayerCount: 3
Fore
SplineSet
70 294 m 4
 70 320 96 334 119 334 c 4
 143 334 170 320 170 293 c 4
 170 268 147 240 121 240 c 4
 95 240 70 268 70 294 c 4
EndSplineSet
Validated: 1
EndChar

StartChar: semicolon
Encoding: 59 59 71
Width: 240
VWidth: 0
Flags: W
HStem: 240 94<82.5012 158.468>
VStem: 70 100<251.852 326.6>
LayerCount: 3
Fore
SplineSet
70 294 m 4
 70 320 96 334 119 334 c 4
 143 334 170 320 170 293 c 4
 170 268 147 240 121 240 c 4
 95 240 70 268 70 294 c 4
EndSplineSet
Validated: 1
EndChar

StartChar: question
Encoding: 63 63 72
Width: 240
VWidth: 0
Flags: W
HStem: 240 94<82.5012 158.468>
VStem: 70 100<251.852 326.6>
LayerCount: 3
Fore
SplineSet
70 294 m 4
 70 320 96 334 119 334 c 4
 143 334 170 320 170 293 c 4
 170 268 147 240 121 240 c 4
 95 240 70 268 70 294 c 4
EndSplineSet
Validated: 1
EndChar

StartChar: K.001
Encoding: 65536 -1 73
Width: 699
VWidth: 0
Flags: HW
LayerCount: 3
Fore
SplineSet
219 37 m 1
 285 38 l 2
 302 38 306 34 306 19 c 0
 306 1 301 -3 287 -3 c 2
 287 -3 224 0 168 0 c 0
 110 0 34 -3 34 -3 c 2
 20 -3 15 1 15 19 c 0
 15 34 19 38 36 38 c 2
 112 37 l 1
 112 204 l 2
 112 444 117 626 117 626 c 1
 41 625 l 2
 24 625 20 629 20 644 c 0
 20 662 25 666 39 666 c 2
 39 666 107 663 163 663 c 0
 221 663 297 666 297 666 c 2
 311 666 316 662 316 644 c 0
 316 629 312 625 295 625 c 2
 219 626 l 1
 219 396 l 1
 268 396 l 2
 297 396 298 399 317 428 c 2
 448 626 l 1
 396 625 l 2
 379 625 375 629 375 644 c 0
 375 662 380 666 394 666 c 2
 394 666 446 663 483 663 c 0
 522 663 570 666 570 666 c 2
 584 666 589 662 589 644 c 0
 589 629 585 625 568 625 c 2
 499 626 l 1
 376 445 l 2
 374 442 370 436 370 431 c 0
 370 423 375 416 376 414 c 2
 573 37 l 1
 660 38 l 2
 677 38 681 34 681 19 c 0
 681 1 676 -3 662 -3 c 2
 662 -3 574 0 518 0 c 0
 460 0 369 -3 369 -3 c 2
 355 -3 350 1 350 19 c 0
 350 34 354 38 371 38 c 2
 443 37 l 1
 297 336 l 2
 286 358 287 358 254 358 c 2
 219 358 l 1
 219 37 l 1
EndSplineSet
Validated: 1
EndChar

StartChar: zero.l
Encoding: 65537 -1 74
Width: 460
VWidth: 0
Flags: HW
HStem: -10 34<178.365 270.853> 589 33<186.673 279.841>
VStem: 26.7588 93.2412<146.811 439.93> 338 87.6748<160.925 449.268>
LayerCount: 3
Fore
SplineSet
236 589 m 0
 128 589 120 432 120 310 c 0
 120 132 130 24 234 24 c 0
 284 24 338 84 338 322 c 0
 338 442 330 589 236 589 c 0
236 622 m 0
 392 622 428 452 428 305 c 0
 428 160 372 -10 231 -10 c 0
 79 -10 25 137 25 290 c 0
 25 453 72 622 236 622 c 0
EndSplineSet
Validated: 1
EndChar

StartChar: one.l
Encoding: 65538 -1 75
Width: 357
VWidth: 0
Flags: HW
HStem: 0 33<55.0037 154 241 329.996> 402 21G<52.5 61> 592 20G<211.5 230.5>
VStem: 154 87<33 486>
LayerCount: 3
Fore
SplineSet
241 33 m 1
 309 34 l 2
 326 34 330 32 330 17 c 0
 330 -1 325 -3 311 -3 c 2
 311 -3 243 0 200 0 c 0
 151 0 74 -3 74 -3 c 2
 60 -3 55 -1 55 17 c 0
 55 32 59 34 76 34 c 2
 154 33 l 1
 154 486 l 1
 94 427 65 402 57 402 c 0
 48 402 43 420 43 432 c 0
 43 436 44 441 53 448 c 0
 104 490 136 517 183 583 c 0
 197 604 204 612 219 612 c 0
 239 612 241 604 241 584 c 2
 241 33 l 1
EndSplineSet
EndChar

StartChar: two.l
Encoding: 65539 -1 76
Width: 512
VWidth: 0
Flags: HW
HStem: 0 86<108 397.5> 572 48<162.925 293.397>
VStem: 58 43<357.375 503.86> 352 96<363.238 512.881>
LayerCount: 3
Fore
SplineSet
478 186 m 0
 478 171 469 169 411 20 c 0
 403 0 401 0 373 0 c 2
 18 0 l 2
 12 0 9 5 9 12 c 0
 9 41 15 39 48 70 c 0
 253 269 218 226 264 275 c 0
 321 336 352 388 352 442 c 0
 352 510 296 572 230 572 c 0
 159 572 101 504 101 430 c 0
 101 395 114 359 144 329 c 0
 160 313 171 305 171 296 c 0
 171 293 170 290 167 287 c 0
 160 279 153 280 147 280 c 0
 140 280 132 283 115 300 c 0
 76 339 58 387 58 434 c 0
 58 529 133 620 264 620 c 0
 364 620 448 540 448 436 c 0
 448 374 420 321 375 283 c 0
 302 221 192 168 108 86 c 1
 360 86 l 2
 392 86 419 135 437 173 c 0
 444 189 451 201 458 201 c 0
 460 201 478 198 478 186 c 0
EndSplineSet
Validated: 1
EndChar

StartChar: three.l
Encoding: 65540 -1 77
Width: 477
VWidth: 0
Flags: HW
HStem: -13 39<128.979 264.374> 356 46<244 283.424> 540 73<122.624 342>
VStem: 32 37<85.7521 145.836> 321 109<116.67 310.456>
LayerCount: 3
Fore
SplineSet
115 585 m 2
 128 611 129 612 150 612 c 2
 399 612 l 2
 412 612 418 607 418 599 c 0
 418 540 361 514 244 402 c 1
 316 402 430 364 430 213 c 0
 430 79 318 -13 198 -13 c 0
 80 -13 32 85 32 130 c 0
 32 144 42 146 49 146 c 0
 55 146 63 140 69 121 c 0
 80 86 115 26 204 26 c 0
 298 26 321 123 321 210 c 0
 321 275 300 356 234 356 c 0
 190 356 155 327 129 304 c 0
 102 281 92 273 88 273 c 0
 77 273 69 283 69 295 c 0
 69 302 80 310 89 317 c 0
 163 373 197 404 228 433 c 2
 341 539 l 1
 191 539 l 2
 139 539 129 539 103 485 c 0
 95 468 91 461 82 461 c 0
 79 461 76 462 72 463 c 0
 66 465 63 468 63 474 c 0
 63 479 64 484 67 490 c 2
 115 585 l 2
EndSplineSet
Layer: 2
SplineSet
115 585 m 6
 128 611 130 613 151 613 c 6
 400 613 l 6
 413 613 418 607 418 599 c 4
 418 540 360.737287325 513.804725889 244 402 c 5
 315.779101563 402 430 364.2 430 213 c 4
 430 79 318 -13 198 -13 c 4
 80 -13 32 85 32 130 c 4
 32 144 42 146 49 146 c 4
 55 146 63 140 69 121 c 4
 80 86 115 26 204 26 c 4
 298 26 321 123 321 210 c 4
 321 275 300 356 234 356 c 4
 190 356 155 327 129 304 c 4
 102 281 92 273 88 273 c 4
 77 273 69 283 69 295 c 4
 69 302 80 310 89 317 c 4
 236 429 228 440 342 540 c 5
 192 540 l 6
 140 540 129 539 103 485 c 4
 95 468 91 461 82 461 c 4
 79 461 76 462 72 463 c 4
 66 465 63 468 63 474 c 4
 63 479 64 484 67 490 c 6
 115 585 l 6
EndSplineSet
EndChar

StartChar: four.l
Encoding: 65541 -1 78
Width: 453
VWidth: 0
Flags: HW
HStem: -0 21G<241.5 277.5> 229 34<61 220 303 387.353> 593 20G<272.5 289>
VStem: 220 83<0.82843 229 263 496> 394 26<145.025 219.804 272.727 342.939>
DStem2: 44 300 61 263 0.571064 0.820905<-20.5525 261.405>
LayerCount: 3
Fore
SplineSet
220 496 m 25
 61 263 l 25
 220 263 l 25
 220 496 l 25
303 229 m 17
 303 32 l 2
 303 2 297 0 258 -0 c 0
 225 0 217 3 217 47 c 0
 217 83 220 204 220 229 c 1
 39 229 l 2
 26 229 20 230 20 240 c 0
 20 264 25 271 44 300 c 2
 220 553 l 2
 249 594 263 613 282 613 c 0
 296 613 305 612 305 593 c 0
 305 568 303 502 303 294 c 2
 303 263 l 9
 326 263 l 2
 390 263 394 280 394 306 c 2
 394 321 l 2
 394 342 402 343 409 343 c 0
 414 343 420 342 420 325 c 0
 420 310 418 292 418 249 c 0
 418 197 420 170 420 157 c 0
 420 147 416 145 408 145 c 0
 397 145 394 152 394 158 c 2
 394 182 l 2
 394 227 371 229 328 229 c 2
 303 229 l 17
EndSplineSet
Validated: 1
EndChar

StartChar: five.l
Encoding: 65542 -1 79
Width: 469
VWidth: 0
Flags: W
HStem: -13 39<146.659 282.701> 368 46<173.54 284.037> 531 81<145.099 325.359>
VStem: 57 36<78.0808 138.964> 60 46<237.058 313.625> 326 108<111.467 321.587>
DStem2: 64 277 116 354 0.190959 0.981598<85.5129 268.306>
LayerCount: 3
Fore
SplineSet
266 414 m 0xec
 358 414 434 347 434 220 c 0
 434 74 340 -13 218 -13 c 0
 100 -13 57 78 57 123 c 0
 57 129.400390625 59.568359375 139 76 139 c 0
 86.2001953125 139 89.302734375 126.67578125 93 114 c 0xf4
 104 79 135 26 224 26 c 0
 318 26 326 120 326 207 c 0
 326 326 288 368 218 368 c 0
 155 368 122 311 106 273 c 0
 94 243 99 237 84 237 c 0
 74 237 60 240 60 253 c 0
 60 258 62 266 64 277 c 2
 121 570 l 2
 129 612 120 612 206 612 c 2
 297 612 l 2
 325 612 340 633 352 646 c 0
 355 650 358 656 367 656 c 0
 371 656 374 654 374 640 c 0
 374 595 329 545 297 537 c 0
 274 532 255 531 234 531 c 2
 179 531 l 2
 157 531 148 527 140 492 c 0
 129 443 116 354 116 354 c 1
 116 354 176 414 266 414 c 0xec
EndSplineSet
EndChar

StartChar: six.l
Encoding: 65543 -1 80
Width: 466
VWidth: 0
Flags: HW
HStem: -13 34<197.462 297.125> 382 32<197.511 285.794> 592 30<244.211 340.944>
VStem: 40 97<128.82 399.993> 333 95<107.562 317.426> 342 78<515.816 590.162>
LayerCount: 3
Fore
SplineSet
137 221 m 0xf8
 137 76 188 21 249 21 c 0
 332 21 333 116 333 191 c 0
 333 281 316 382 246 382 c 0
 169 382 137 299 137 221 c 0xf8
307 622 m 0
 405 622 420 572 420 539 c 0xf4
 420 496 385 491 372 491 c 0
 342 491 333 512 333 533 c 0xf8
 333 553 342 574 342 576 c 0xf4
 342 585 326 592 304 592 c 0
 236 592 143 541 135 339 c 1
 147 352 182 414 259 414 c 0
 373 414 428 316 428 214 c 0
 428 103 363 -13 238 -13 c 0
 104 -13 40 119 40 262 c 0
 40 434 132 622 307 622 c 0
EndSplineSet
EndChar

StartChar: seven.l
Encoding: 65544 -1 81
Width: 482
VWidth: 0
Flags: W
HStem: 0 21G<131.5 184.5> 531 81<121.031 374>
VStem: 93 121<0.787704 79.8317>
DStem2: 60 487 91 469 0.508453 0.86109<-26.5229 82.4583>
LayerCount: 3
Fore
SplineSet
72 447 m 0
 65 447 48 452 48 463 c 0
 48 469 53 476 60 487 c 2
 122 592 l 2
 133 610 136 612 165 612 c 2
 286 612 l 2
 413 612 423 614 434 614 c 0
 442 614 453 611 453 602 c 0
 453 594 447 582 432 561 c 0
 360 460 224 270 214 23 c 0
 213 1 213 0 156 0 c 0
 107 0 93 0 93 13 c 0
 93 19 97 28 100 40 c 0
 112 83 142 176 205 282 c 0
 244 348 289 416 374 531 c 1
 163 531 l 2
 125 531 128 529 118 513 c 2
 91 469 l 2
 81 453 78 447 72 447 c 0
EndSplineSet
EndChar

StartChar: eight.l
Encoding: 65545 -1 82
Width: 430
VWidth: 0
Flags: HW
HStem: -10 32<153.873 287.541> 591 31<151.799 270.088>
VStem: 15 77<75.0668 228.701> 43 68<439.595 545.129> 316 68<414.959 555.306> 346 63<80.2542 198.231>
LayerCount: 3
Fore
SplineSet
158 305 m 1xe4
 110 270 92 218 92 159 c 0
 92 91 123 22 224 22 c 0
 294 22 346 71 346 132 c 0
 346 178 319 231 227 273 c 0
 201 285 175 295 158 305 c 1xe4
213 591 m 0
 153 591 111 563 111 490 c 0
 111 410 260 359 260 359 c 1
 260 359 316 394 316 488 c 0xd8
 316 558 267 591 213 591 c 0
279 348 m 1
 283 345 409 307 409 173 c 0
 409 43 310 -10 218 -10 c 0
 94 -10 15 53 15 155 c 0xe4
 15 257 117 303 138 313 c 1
 138 313 43 365 43 468 c 0
 43 560 122 622 216 622 c 0
 306 622 383 578 383 486 c 0
 383 387 279 348 279 348 c 1
EndSplineSet
Validated: 1
EndChar

StartChar: nine.l
Encoding: 65546 -1 83
Width: 466
VWidth: 0
Flags: HW
HStem: -13 35<132.811 254.731> 190 37<183.163 284.664> 590 32<184.848 281.648>
VStem: 47 87<57.8358 125.75 291.509 522.108> 47 80<28.4507 112.457> 339 92<194.008 489.778>
LayerCount: 3
Fore
SplineSet
236 590 m 0xe4
 142 590 138 487 138 408 c 0
 138 329 153 227 230 227 c 0
 307 227 339 310 339 388 c 0
 339 475 323 590 236 590 c 0xe4
47 79 m 0xf4
 47 108.232514352 69.6416436416 132 89 132 c 0
 108 132 134 122 134 97 c 0xf4
 134 79 127 75 127 57 c 0xec
 127 43 133 22 190 22 c 0
 323 22 338 178 338 262 c 1
 322 239 l 2
 302 210 268 190 221 190 c 0
 130 190 45 265 45 401 c 0
 45 508 86 622 238 622 c 0
 374 622 431 494 431 354 c 0
 431 144 338 -13 174 -13 c 0
 111 -13 47 10 47 79 c 0xf4
EndSplineSet
Validated: 524289
EndChar

StartChar: zero.r
Encoding: 65547 -1 111
Width: 460
VWidth: 0
Flags: WO
HStem: -11 37<182.032 283.682> 376 38<175.742 277.517>
VStem: 33 85<97.9604 302.898> 340 83<99.6304 306.281>
LayerCount: 3
Fore
SplineSet
33 200 m 0
 33 342 133 414 232 414 c 0
 328 414 423 346 423 204 c 0
 423 60 326 -11 229 -11 c 0
 131 -11 33 61 33 200 c 0
340 198 m 0
 340 316 284 376 227 376 c 0
 171 376 118 319 118 206 c 4
 118 88 175 26 233 26 c 0
 288 26 340 82 340 198 c 0
EndSplineSet
EndChar

StartChar: one.r
Encoding: 65548 -1 112
Width: 357
VWidth: 0
Flags: W
HStem: 0 33<55.0037 154 241 329.996> 363 40<59.0118 153>
VStem: 154 87<33 367>
LayerCount: 3
Fore
SplineSet
154 259 m 2
 154 292 153 367 153 367 c 1
 90 364 82 363 74 363 c 0
 63 363 59 364 59 382 c 0
 59 398 62 403 76 403 c 0
 225 403 244 402 244 402 c 1
 244 402 241 114 241 73 c 2
 241 33 l 1
 309 34 l 2
 326 34 330 32 330 17 c 0
 330 -1 325 -3 311 -3 c 2
 311 -3 243 0 200 0 c 0
 151 0 74 -3 74 -3 c 2
 60 -3 55 -1 55 17 c 0
 55 32 59 34 76 34 c 2
 154 33 l 1
 154 259 l 2
EndSplineSet
EndChar

StartChar: two.r
Encoding: 65549 -1 113
Width: 477
VWidth: 0
Flags: HW
HStem: 0 69<160 375.466> 366 48<157.4 276.038>
VStem: 71 37<203.268 317.388> 296 95<232.646 346.027>
LayerCount: 3
Fore
SplineSet
115 184 m 0
 92 184 71 216 71 265 c 0
 71 361 166 414 252 414 c 0
 322 414 391 378 391 300 c 0
 391 202 266 138 160 69 c 1
 341 69 l 2
 378 69 401 140 410 140 c 0
 415 140 429 134 429 127 c 0
 429 124 428 118 426 114 c 0
 371 0 372 0 352 0 c 2
 75 0 l 2
 74 0 62 3 62 13 c 0
 62 23 74 42 99 60 c 0
 280 194 296 245 296 291 c 0
 296 343 261 366 221 366 c 0
 169 366 108 326 108 262 c 0
 108 214 127 209 127 198 c 0
 127 194 125 184 115 184 c 0
EndSplineSet
EndChar

StartChar: three.r
Encoding: 65550 -1 114
Width: 477
VWidth: 0
Flags: HW
HStem: -222 39<128.979 264.374> 147 46<244 283.424> 330 73<121.419 341>
VStem: 32 37<-123.248 -63.164> 321 109<-92.3296 101.413>
LayerCount: 3
Fore
SplineSet
115 376 m 2
 128 402 129 403 150 403 c 2
 399 403 l 2
 412 403 418 398 418 390 c 0
 418 331 361 305 244 193 c 1
 316 193 430 155 430 4 c 0
 430 -130 318 -222 198 -222 c 0
 80 -222 32 -124 32 -79 c 0
 32 -65 42 -63 49 -63 c 0
 55 -63 63 -69 69 -88 c 0
 80 -123 115 -183 204 -183 c 0
 298 -183 321 -86 321 1 c 0
 321 66 300 147 234 147 c 0
 190 147 155 118 129 95 c 0
 102 72 92 64 88 64 c 0
 77 64 69 74 69 86 c 0
 69 93 80 101 89 108 c 0
 163 164 197 195 228 224 c 2
 341 330 l 1
 191 330 l 2
 139 330 129 330 103 276 c 0
 95 259 91 252 82 252 c 0
 79 252 76 253 72 254 c 0
 66 256 63 259 63 265 c 0
 63 270 64 275 67 281 c 2
 115 376 l 2
EndSplineSet
EndChar

StartChar: four.r
Encoding: 65551 -1 115
Width: 453
VWidth: 0
Flags: HW
HStem: 20 34<61 220 303 387.353> 384 20G<272.5 289>
VStem: 220 83<-208.172 20 54 287> 394 26<-63.9751 10.8044 63.7271 133.939>
DStem2: 44 91 61 54 0.571064 0.820905<-20.5525 261.405>
LayerCount: 3
Fore
SplineSet
220 287 m 25
 61 54 l 25
 220 54 l 25
 220 287 l 25
303 20 m 17
 303 -177 l 2
 303 -207 297 -209 258 -209 c 0
 225 -209 217 -206 217 -162 c 0
 217 -126 220 -5 220 20 c 1
 39 20 l 2
 26 20 20 21 20 31 c 0
 20 55 25 62 44 91 c 2
 220 344 l 2
 249 385 263 404 282 404 c 0
 296 404 305 403 305 384 c 0
 305 359 303 293 303 85 c 2
 303 54 l 9
 326 54 l 2
 390 54 394 71 394 97 c 2
 394 112 l 2
 394 133 402 134 409 134 c 0
 414 134 420 133 420 116 c 0
 420 101 418 83 418 40 c 0
 418 -12 420 -39 420 -52 c 0
 420 -62 416 -64 408 -64 c 0
 397 -64 394 -57 394 -51 c 2
 394 -27 l 2
 394 18 371 20 328 20 c 2
 303 20 l 17
EndSplineSet
EndChar

StartChar: five.r
Encoding: 65552 -1 116
Width: 469
VWidth: 0
Flags: HW
HStem: -222 39<146.659 282.701> 159 46<173.54 284.037> 322 81<145.099 325.359>
VStem: 57 36<-130.919 -70.0357> 60 46<28.0583 104.625> 326 108<-97.5328 112.587>
DStem2: 64 68 116 145 0.190959 0.981598<85.5129 268.306>
LayerCount: 3
Fore
SplineSet
266 205 m 0xec
 358 205 434 138 434 11 c 0
 434 -135 340 -222 218 -222 c 0
 100 -222 57 -131 57 -86 c 0
 57 -79.599609375 59.568359375 -70 76 -70 c 0
 86.2001953125 -70 89.302734375 -82.32421875 93 -95 c 0xf4
 104 -130 135 -183 224 -183 c 0
 318 -183 326 -89 326 -2 c 0
 326 117 288 159 218 159 c 0
 155 159 122 102 106 64 c 0
 94 34 99 28 84 28 c 0
 74 28 60 31 60 44 c 0
 60 49 62 57 64 68 c 2
 121 361 l 2
 129 403 120 403 206 403 c 2
 297 403 l 2
 325 403 340 424 352 437 c 0
 355 441 358 447 367 447 c 0
 371 447 374 445 374 431 c 0
 374 386 329 336 297 328 c 0
 274 323 255 322 234 322 c 2
 179 322 l 2
 157 322 148 318 140 283 c 0
 129 234 116 145 116 145 c 1
 116 145 176 205 266 205 c 0xec
EndSplineSet
EndChar

StartChar: six.r
Encoding: 65553 -1 117
Width: 466
VWidth: 0
Flags: W
HStem: -13 34<197.462 297.125> 382 32<197.511 285.794> 592 30<244.211 340.944>
VStem: 40 97<128.82 399.993> 333 95<107.562 317.426> 342 78<515.816 590.162>
LayerCount: 3
Fore
SplineSet
137 221 m 0xf8
 137 76 188 21 249 21 c 0
 332 21 333 116 333 191 c 0
 333 281 316 382 246 382 c 0
 169 382 137 299 137 221 c 0xf8
307 622 m 0
 405 622 420 572 420 539 c 0xf4
 420 496 385 491 372 491 c 0
 342 491 333 512 333 533 c 0xf8
 333 553 342 574 342 576 c 0xf4
 342 585 326 592 304 592 c 0
 236 592 143 541 135 339 c 1
 147 352 182 414 259 414 c 0
 373 414 428 316 428 214 c 0
 428 103 363 -13 238 -13 c 0
 104 -13 40 119 40 262 c 0
 40 434 132 622 307 622 c 0
EndSplineSet
EndChar

StartChar: seven.r
Encoding: 65554 -1 118
Width: 482
VWidth: 0
Flags: HW
HStem: 322 81<121.031 374>
VStem: 93 121<-208.212 -129.168>
DStem2: 60 278 91 260 0.508453 0.86109<-26.5229 82.4583>
LayerCount: 3
Fore
SplineSet
72 238 m 0
 65 238 48 243 48 254 c 0
 48 260 53 267 60 278 c 2
 122 383 l 2
 133 401 136 403 165 403 c 2
 286 403 l 2
 413 403 423 405 434 405 c 0
 442 405 453 402 453 393 c 0
 453 385 447 373 432 352 c 0
 360 251 224 61 214 -186 c 0
 213 -208 213 -209 156 -209 c 0
 107 -209 93 -209 93 -196 c 0
 93 -190 97 -181 100 -169 c 0
 112 -126 142 -33 205 73 c 0
 244 139 289 207 374 322 c 1
 163 322 l 2
 125 322 128 320 118 304 c 2
 91 260 l 2
 81 244 78 238 72 238 c 0
EndSplineSet
EndChar

StartChar: eight.r
Encoding: 65555 -1 119
Width: 430
VWidth: 0
Flags: HW
HStem: -10 32<153.873 287.541> 591 31<151.799 270.088>
VStem: 15 77<75.0668 228.701> 43 68<439.595 545.129> 316 68<414.959 555.306> 346 63<80.2542 198.231>
LayerCount: 3
Fore
SplineSet
158 305 m 1xe4
 110 270 92 218 92 159 c 0
 92 91 123 22 224 22 c 0
 294 22 346 71 346 132 c 0
 346 178 319 231 227 273 c 0
 201 285 175 295 158 305 c 1xe4
213 591 m 0
 153 591 111 563 111 490 c 0
 111 410 260 359 260 359 c 1
 260 359 316 394 316 488 c 0xd8
 316 558 267 591 213 591 c 0
279 348 m 1
 283 345 409 307 409 173 c 0
 409 43 310 -10 218 -10 c 0
 94 -10 15 53 15 155 c 0xe4
 15 257 117 303 138 313 c 1
 138 313 43 365 43 468 c 0
 43 560 122 622 216 622 c 0
 306 622 383 578 383 486 c 0
 383 387 279 348 279 348 c 1
EndSplineSet
EndChar

StartChar: nine.r
Encoding: 65556 -1 120
Width: 466
VWidth: 0
Flags: HW
HStem: -222 35<132.811 254.731> -19 37<183.163 284.664> 381 32<184.848 281.648>
VStem: 47 87<-151.166 -85.125 82.5091 313.108> 47 80<-180.549 -98.7578> 339 92<-14.9923 280.778>
LayerCount: 3
Fore
SplineSet
236 381 m 0xe4
 142 381 138 278 138 199 c 0
 138 120 153 18 230 18 c 0
 307 18 339 101 339 179 c 0
 339 266 323 381 236 381 c 0xe4
47 -130 m 0xf4
 47 -100.767578125 69.6416015625 -77 89 -77 c 0
 108 -77 134 -87 134 -112 c 0xf4
 134 -130 127 -134 127 -152 c 0xec
 127 -166 133 -187 190 -187 c 0
 323 -187 338 -31 338 53 c 1
 322 30 l 2
 302 1 268 -19 221 -19 c 0
 130 -19 45 56 45 192 c 0
 45 299 86 413 238 413 c 0
 374 413 431 285 431 145 c 0
 431 -65 338 -222 174 -222 c 0
 111 -222 47 -199 47 -130 c 0xf4
EndSplineSet
EndChar
